<?xml version="1.0" encoding="UTF-8"?>
<!-- Generator: visioncortex VTracer 0.6.3 -->
<svg version="1.1" xmlns="http://www.w3.org/2000/svg" width="1024" height="1024">
<path d="M0 0 C337.92 0 675.84 0 1024 0 C1024 337.92 1024 675.84 1024 1024 C686.08 1024 348.16 1024 0 1024 C0 686.08 0 348.16 0 0 Z " fill="#F9E9E0" transform="translate(0,0)"/>
<path d="M0 0 C145.53 0 291.06 0 441 0 C441 139.59 441 279.18 441 423 C443.97 423 446.94 423 450 423 C450 502.2 450 581.4 450 663 C300.84 663 151.68 663 -2 663 C-2 583.8 -2 504.6 -2 423 C109.21 422.67 220.42 422.34 335 422 C335 412.43 335 402.86 335 393 C335.33 390.69 335.66 388.38 336 386 C307.29 386.5 307.29 386.5 278 387 C276.02 390.63 274.04 394.26 272 398 C266.49 404.72 259.34 409.57 250.73 411.51 C243.97 411.9 238.45 408.3 233.31 404.31 C228.07 399.58 224.63 392.83 223 386 C223 383.69 223 381.38 223 379 C216.4 379.33 209.8 379.66 203 380 C202.3 381.82 201.6 383.63 200.88 385.5 C196.18 396.69 189.23 404 178.17 409.12 C167.12 413.59 155.1 415.3 143.69 411.06 C137.58 408.18 132.48 404.04 128 399 C128 398.34 128 397.68 128 397 C127.52 397.44 127.03 397.87 126.53 398.32 C123.1 401.37 119.64 404.38 116.06 407.25 C115.5 407.71 114.93 408.17 114.35 408.64 C107.56 412.57 100.8 413.5 93.06 413.38 C91.74 413.36 91.74 413.36 90.39 413.34 C78.33 413.05 68.98 409.34 59.93 401.12 C51.71 392.31 48.88 383.08 48.87 371.17 C48.87 369.88 48.86 368.6 48.86 367.27 C48.87 365.91 48.87 364.55 48.88 363.19 C48.88 362.16 48.88 362.16 48.88 361.1 C48.89 350.37 49.24 339.71 50 329 C41.75 329 33.5 329 25 329 C23.97 269.5 32.4 209.67 41.53 151.01 C41.98 148.13 42.42 145.25 42.86 142.37 C43.5 138.18 44.16 134 44.83 129.81 C45.06 128.36 45.29 126.9 45.52 125.44 C48.79 104.44 54.31 87.61 71.81 74.56 C76.71 71 76.71 71 79 71 C79.21 70.28 79.41 69.56 79.62 68.81 C81.42 65.13 83.7 63.38 87 61 C87.69 60.89 88.37 60.78 89.08 60.67 C91.23 60.17 91.23 60.17 92.05 57.81 C92.33 56.88 92.6 55.96 92.88 55 C95.74 46.4 99.85 39.4 108 35 C112.53 33.06 114.83 33 120 33 C120 27.06 120 21.12 120 15 C80.4 15 40.8 15 0 15 C0 10.05 0 5.1 0 0 Z " fill="#060B28" transform="translate(418,197)"/>
<path d="M0 0 C79.53 0 159.06 0 241 0 C241 4.95 241 9.9 241 15 C226.81 15 212.62 15 198 15 C197.6 27.83 197.6 27.83 201.5 32.19 C202.32 32.79 203.15 33.38 204 34 C205.04 37.12 205.11 39.27 205.1 42.54 C205.09 43.62 205.09 44.69 205.09 45.79 C205.08 46.91 205.07 48.03 205.06 49.19 C205.06 50.32 205.05 51.45 205.05 52.62 C205.04 55.41 205.02 58.21 205 61 C206.11 61.29 207.23 61.58 208.38 61.88 C212 63 212 63 214 65 C214.59 69.32 214.74 73.64 215 78 C223.58 78 232.16 78 241 78 C241 270.39 241 462.78 241 661 C160.67 661 80.33 660.46 0 660 C0 442.2 0 224.4 0 0 Z " fill="#829FA8" transform="translate(164,197)"/>
<path d="M0 0 C23.43 0 46.86 0 71 0 C72.21 3.62 72.11 6.93 72.06 10.69 C72.06 11.39 72.05 12.09 72.05 12.81 C72.04 14.54 72.02 16.27 72 18 C71.11 18.36 71.11 18.36 70.21 18.73 C61.02 22.63 56.52 27.07 52 36 C50.83 38.96 49.88 41.94 49 45 C50.25 44.68 51.5 44.35 52.79 44.02 C60.39 42.5 68.05 42.7 75.77 42.74 C78.39 42.75 81.01 42.74 83.63 42.73 C85.3 42.73 86.98 42.73 88.65 42.73 C89.43 42.73 90.21 42.73 91.01 42.72 C94.9 42.76 97.62 43.06 101 45 C101.66 44.67 102.32 44.34 103 44 C101.66 41.28 100.31 38.58 98.94 35.88 C98.57 35.11 98.2 34.35 97.81 33.57 C94.56 27.22 90.63 22.59 84 19.69 C80.7 18.93 77.35 18.48 74 18 C74 12.06 74 6.12 74 0 C95.45 0 116.9 0 139 0 C139 5.94 139 11.88 139 18 C136.36 18.66 133.72 19.32 131 20 C126.04 22.65 123.68 25.48 120.88 30.31 C120.54 30.89 120.2 31.46 119.85 32.05 C118.89 33.69 117.94 35.35 117 37 C116.54 37.79 116.08 38.59 115.6 39.41 C114.72 40.93 113.86 42.46 113 44 C113.95 43.94 114.91 43.88 115.89 43.82 C126.15 43.46 126.15 43.46 130.12 46 C156.64 88.43 154.36 161.7 156.46 210.24 C156.49 210.98 156.52 211.71 156.55 212.46 C156.63 214.4 156.71 216.34 156.78 218.28 C156.94 220.91 157.17 223.4 157.51 226 C158.3 232.8 158.18 239.65 158.2 246.49 C158.21 248.02 158.22 249.55 158.22 251.09 C158.24 256.02 158.25 260.95 158.25 265.88 C158.25 266.71 158.25 267.55 158.25 268.41 C158.28 290.96 157.98 313.42 156.56 335.94 C156.5 337.01 156.43 338.08 156.36 339.18 C156.17 342.15 155.96 345.12 155.75 348.09 C155.69 348.95 155.63 349.8 155.57 350.69 C155.3 354.23 154.93 357.57 154 361 C153.45 361.01 152.9 361.02 152.34 361.02 C146.61 361.11 140.89 361.21 135.16 361.32 C133.02 361.36 130.89 361.39 128.75 361.42 C125.68 361.47 122.6 361.53 119.53 361.59 C118.11 361.6 118.11 361.6 116.65 361.62 C111.41 361.74 107.04 362.41 102 364 C99.28 364.32 99.28 364.32 96.72 364.41 C95.8 364.45 94.87 364.49 93.92 364.53 C92.51 364.58 92.51 364.58 91.06 364.62 C90.09 364.66 89.12 364.7 88.12 364.74 C85.75 364.84 83.37 364.92 81 365 C80.56 366.16 80.56 366.16 80.12 367.34 C75.16 379.95 68.64 388.35 56.17 394.12 C45.12 398.59 33.1 400.3 21.69 396.06 C15.58 393.18 10.48 389.04 6 384 C6 383.34 6 382.68 6 382 C5.52 382.44 5.03 382.87 4.53 383.32 C1.1 386.37 -2.36 389.38 -5.94 392.25 C-6.5 392.71 -7.07 393.17 -7.65 393.64 C-14.44 397.57 -21.2 398.5 -28.94 398.38 C-30.26 398.36 -30.26 398.36 -31.61 398.34 C-43.67 398.05 -53.02 394.34 -62.07 386.12 C-70.29 377.31 -73.12 368.08 -73.13 356.17 C-73.13 354.88 -73.14 353.6 -73.14 352.27 C-73.13 350.91 -73.13 349.55 -73.12 348.19 C-73.12 347.5 -73.12 346.81 -73.12 346.1 C-73.11 335.37 -72.76 324.71 -72 314 C-80.25 314 -88.5 314 -97 314 C-98.03 254.5 -89.6 194.67 -80.47 136.01 C-80.02 133.13 -79.58 130.25 -79.14 127.37 C-78.5 123.18 -77.84 119 -77.17 114.81 C-76.94 113.36 -76.71 111.9 -76.48 110.44 C-73.21 89.44 -67.69 72.61 -50.19 59.56 C-45.29 56 -45.29 56 -43 56 C-42.79 55.28 -42.59 54.56 -42.38 53.81 C-40.56 50.11 -38.35 48.36 -35 46 C-32.12 45.19 -32.12 45.19 -30 45 C-30 47.31 -30 49.62 -30 52 C-29.36 51.3 -28.72 50.6 -28.06 49.88 C-20.64 42.43 -13.71 39.76 -3.44 39.69 C7.68 39.68 15.15 41.5 23.44 49.25 C25.3 51.34 26.34 53.27 27 56 C24.03 57.7 21.91 58.25 18.49 58.24 C17.61 58.25 16.73 58.25 15.81 58.25 C14.39 58.24 14.39 58.24 12.94 58.23 C11.96 58.23 10.98 58.23 9.97 58.23 C7.89 58.23 5.82 58.22 3.75 58.21 C0.58 58.19 -2.59 58.19 -5.76 58.19 C-7.78 58.18 -9.79 58.17 -11.81 58.17 C-12.75 58.17 -13.7 58.17 -14.68 58.16 C-18.9 58.13 -22.88 58.08 -27 57 C-26.81 57.72 -26.61 58.44 -26.41 59.17 C-24.18 67.75 -22.77 76.32 -21.54 85.08 C-20.66 90.93 -19.46 95.65 -17 101 C-16.38 103.61 -15.82 106.18 -15.31 108.81 C-12.98 120.04 -9.45 130.87 -6 141.79 C-4.46 146.72 -2.98 151.67 -1.5 156.62 C-1.24 157.48 -0.99 158.33 -0.73 159.21 C-0.15 161.14 0.42 163.07 1 165 C1.33 165 1.66 165 2 165 C2.29 163.8 2.58 162.6 2.88 161.36 C5.03 152.62 7.25 143.9 9.75 135.25 C9.99 134.41 10.23 133.56 10.48 132.69 C11.67 128.58 12.86 124.48 14.06 120.37 C19.09 103.24 23.45 86.26 26.51 68.64 C26.98 66.12 27.52 63.63 28.09 61.12 C28.83 57.9 29.35 54.74 29.62 51.44 C29.7 50.59 29.77 49.74 29.85 48.87 C29.93 47.94 29.93 47.94 30 47 C28.51 46.5 28.51 46.5 27 46 C25.61 43.09 25.61 43.09 24.19 39.38 C20.37 30 16.64 25.32 7.46 20.95 C4.64 19.78 4.64 19.78 0 19 C0 12.73 0 6.46 0 0 Z " fill="#2FB3C7" transform="translate(540,212)"/>
<path d="M0 0 C75.9 0 151.8 0 230 0 C230 4.95 230 9.9 230 15 C215.81 15 201.62 15 187 15 C186.6 27.83 186.6 27.83 190.5 32.19 C191.32 32.79 192.15 33.38 193 34 C194.04 37.12 194.11 39.27 194.1 42.54 C194.09 43.62 194.09 44.69 194.09 45.79 C194.08 46.91 194.07 48.03 194.06 49.19 C194.06 50.32 194.05 51.45 194.05 52.62 C194.04 55.41 194.02 58.21 194 61 C195.11 61.29 196.23 61.58 197.38 61.88 C201 63 201 63 203 65 C203.59 69.32 203.74 73.64 204 78 C212.58 78 221.16 78 230 78 C230.03 147.32 229.97 216.64 229.81 285.96 C229.78 298.28 229.75 310.6 229.72 322.93 C229.67 344.87 229.62 366.82 229.57 388.77 C229.52 409.99 229.48 431.22 229.43 452.45 C229.43 453.44 229.43 453.44 229.42 454.45 C229.41 461.77 229.39 469.09 229.37 476.41 C229.25 530.94 229.13 585.47 229 640 C224.46 640.09 219.92 640.14 215.38 640.19 C213.45 640.23 213.45 640.23 211.48 640.26 C210.24 640.27 208.99 640.28 207.71 640.29 C206.57 640.31 205.43 640.32 204.25 640.34 C199.78 639.87 196.44 638.34 193.15 635.27 C191.54 632.09 191.6 629.14 191.66 625.66 C191.66 624.93 191.66 624.2 191.66 623.44 C191.66 621.03 191.68 618.62 191.71 616.2 C191.71 614.53 191.72 612.85 191.72 611.18 C191.73 606.77 191.76 602.36 191.79 597.96 C191.82 593.46 191.84 588.96 191.85 584.46 C191.89 575.64 191.94 566.82 192 558 C190.74 558.16 189.47 558.32 188.17 558.49 C183.27 559.12 178.44 559.22 173.5 559.25 C172.6 559.27 171.7 559.29 170.78 559.31 C161.86 559.36 155.51 557.19 149 551 C144.61 542.22 148.09 525.8 148.65 516.29 C149.78 496.89 150.38 477.49 150.85 458.07 C150.87 457.39 150.88 456.71 150.9 456.01 C151.1 447.66 151.29 439.31 151.48 430.96 C151.64 423.75 151.81 416.53 151.98 409.32 C152.33 394.55 152.67 379.77 153 365 C153.59 364.97 154.18 364.95 154.79 364.92 C157.51 364.79 160.23 364.66 162.95 364.54 C163.88 364.49 164.8 364.45 165.76 364.4 C173.52 364.04 181.26 363.56 189 363 C188.88 361.77 188.76 360.53 188.63 359.26 C187.69 349.52 186.79 339.77 186 330.01 C185.92 329 185.84 327.99 185.75 326.95 C185.41 322.82 185.08 318.69 184.75 314.56 C183.59 299.97 183.59 299.97 181.93 285.43 C180.81 276.91 180.32 268.39 179.88 259.82 C179.5 253.37 178.9 247.07 177.92 240.69 C175.98 227.78 175.38 215.01 175.09 201.97 C175.03 199.72 174.97 197.48 174.9 195.23 C174.75 189.36 174.6 183.49 174.46 177.62 C174.32 171.74 174.16 165.86 174.01 159.97 C173.8 152.06 173.59 144.15 173.39 136.23 C172.99 120.44 172.99 120.44 172.54 104.64 C172.48 102.77 172.43 100.9 172.37 99.02 C172.19 93.28 171.82 87.69 171 82 C169.88 71.82 169.88 71.82 172.56 67.45 C174.29 65.49 176.03 63.71 178 62 C177.26 60.86 177.26 60.86 176.5 59.69 C173.61 52.59 174.33 45.15 176.94 38.03 C178.08 35.84 179.36 34.52 181.12 32.81 C185.35 27.93 185.35 27.93 185 15 C172.46 15.33 159.92 15.66 147 16 C146.67 18.97 146.34 21.94 146 25 C145.67 25 145.34 25 145 25 C145 21.7 145 18.4 145 15 C130.48 15 115.96 15 101 15 C101 19.62 101 24.24 101 29 C102.32 29.66 103.64 30.32 105 31 C108.07 33.38 108.45 35.21 109 39 C109.19 42.29 109.23 45.58 109.25 48.88 C109.27 49.75 109.29 50.62 109.31 51.52 C109.35 57.13 108.41 60.85 106 66 C100.72 92.94 101.17 122.59 106.69 149.34 C108.46 157.95 109.91 166.54 111.13 175.24 C111.66 178.94 112.2 182.65 112.74 186.35 C112.85 187.09 112.95 187.83 113.06 188.58 C115.14 202.88 117.25 217.16 120.41 231.27 C122.84 242.47 122.33 252.28 119.19 263.25 C118.63 265.28 118.08 267.32 117.54 269.35 C117.27 270.32 117 271.3 116.73 272.3 C113.24 285.19 112.24 296.53 113.96 309.82 C115.05 318.72 115.6 327.61 116.03 336.56 C116.11 338.21 116.2 339.86 116.28 341.51 C117.24 360.84 117.91 380.18 118.59 399.52 C118.8 405.39 119 411.26 119.22 417.12 C119.25 417.95 119.28 418.77 119.31 419.61 C119.83 433.75 120.52 447.88 121.32 462 C122.07 475.57 122.5 489.15 122.83 502.74 C122.96 505.2 123.17 507.57 123.47 510.02 C124.2 516.33 124.43 522.67 124.72 529.01 C124.78 530.35 124.85 531.69 124.91 533.03 C125.14 537.97 125.37 542.9 125.6 547.84 C125.79 552.02 125.99 556.21 126.19 560.4 C126.28 562.35 126.37 564.3 126.45 566.25 C126.54 568.04 126.54 568.04 126.63 569.86 C126.68 570.91 126.72 571.95 126.77 573.02 C127 576.06 127.48 579 128 582 C128.16 584.06 128.26 586.12 128.31 588.19 C128.37 589.72 128.37 589.72 128.43 591.29 C128 594 128 594 126.17 595.8 C122.19 598 119.06 598.12 114.58 598.1 C113.33 598.09 112.07 598.09 110.78 598.09 C109.47 598.08 108.16 598.07 106.81 598.06 C105.48 598.06 104.14 598.05 102.81 598.05 C99.54 598.04 96.27 598.02 93 598 C93.16 598.74 93.32 599.48 93.48 600.25 C94.19 604.01 94.3 607.68 94.38 611.5 C94.43 612.62 94.43 612.62 94.49 613.76 C94.55 617.88 94.37 619.52 91.79 622.89 C89.19 624.86 87.04 626.13 84 627.25 C83.18 627.56 82.35 627.88 81.5 628.2 C76.48 629.8 71.84 630.19 66.56 630.25 C65.29 630.28 64.01 630.3 62.69 630.33 C57.81 629.89 54.47 628.47 51 625 C50.75 622.84 50.75 622.84 50.76 620.08 C50.76 619.02 50.76 617.96 50.76 616.86 C50.77 615.67 50.78 614.48 50.79 613.26 C50.8 611.35 50.8 611.35 50.81 609.4 C50.95 590.62 51.61 571.85 52.21 553.08 C52.31 549.84 52.41 546.6 52.52 543.36 C53.44 513.59 54.42 483.81 55.47 454.04 C55.56 451.49 55.65 448.94 55.74 446.39 C56.37 428.22 57.17 410.09 58.28 391.95 C59.1 378.74 59.66 365.53 60.18 352.31 C60.3 349.39 60.42 346.47 60.54 343.55 C60.57 342.69 60.6 341.82 60.63 340.93 C60.83 336.22 61.3 331.67 62 327 C62.16 324.92 62.29 322.85 62.39 320.77 C63.19 306.33 64.3 291.99 65.94 277.62 C66.02 276.91 66.1 276.2 66.18 275.47 C67.06 267.61 68.17 259.84 69.61 252.07 C70.7 246.11 71.46 240.38 71.31 234.31 C71.3 233.48 71.29 232.65 71.28 231.8 C71.15 224.87 70.5 218.03 69.78 211.14 C68.79 201.06 68.57 190.97 68.34 180.85 C68.33 180.17 68.31 179.49 68.29 178.79 C68.25 176.95 68.21 175.11 68.17 173.27 C68.07 169.78 67.79 166.32 67.52 162.84 C66.81 153.15 66.66 143.44 66.46 133.73 C66.42 131.71 66.38 129.69 66.33 127.67 C66.22 122.4 66.11 117.13 66 111.85 C65.89 106.46 65.78 101.06 65.66 95.66 C65.44 85.11 65.22 74.55 65 64 C63.78 63.67 62.57 63.35 61.32 63.01 C59.73 62.57 58.15 62.13 56.56 61.69 C55.36 61.37 55.36 61.37 54.13 61.04 C53.37 60.83 52.6 60.61 51.82 60.39 C51.11 60.19 50.4 60 49.67 59.8 C49.12 59.54 48.57 59.27 48 59 C45.71 52.14 45.32 41.78 48.3 35.07 C49.76 33.17 51.19 31.56 53 30 C54.88 28.12 54.39 24.96 54.56 22.44 C54.65 21.24 54.73 20.04 54.82 18.81 C54.91 17.42 54.91 17.42 55 16 C53.85 16.02 52.7 16.04 51.52 16.06 C47.23 16.14 42.95 16.18 38.67 16.22 C36.82 16.24 34.97 16.27 33.12 16.3 C30.45 16.35 27.78 16.37 25.12 16.39 C24.3 16.41 23.47 16.43 22.63 16.45 C17.23 16.46 14.32 15.5 10 12 C8.97 11.2 7.94 10.39 6.88 9.56 C4.21 7.19 2.05 4.91 0 2 C0 1.34 0 0.68 0 0 Z " fill="#13142B" transform="translate(175,197)"/>
<path d="M0 0 C142.56 0 285.12 0 432 0 C432 36.3 432 72.6 432 110 C289.44 110 146.88 110 0 110 C0 73.7 0 37.4 0 0 Z " fill="#FEEEE0" transform="translate(425,630)"/>
<path d="M0 0 C142.56 0 285.12 0 432 0 C432 32.67 432 65.34 432 99 C289.44 99 146.88 99 0 99 C0 66.33 0 33.66 0 0 Z " fill="#FDEEE0" transform="translate(425,751)"/>
<path d="M0 0 C0 139.59 0 279.18 0 423 C2.97 423 5.94 423 9 423 C9 502.2 9 581.4 9 663 C-140.16 663 -289.32 663 -443 663 C-443 583.8 -443 504.6 -443 423 C-331.79 422.67 -220.58 422.34 -106 422 C-106 412.43 -106 402.86 -106 393 C-105.67 390.69 -105.34 388.38 -105 386 C-86.52 385.67 -68.04 385.34 -49 385 C-45.21 372.69 -42.18 361.1 -40.88 348.38 C-40.76 347.28 -40.76 347.28 -40.65 346.16 C-38.84 326.79 -38.8 307.37 -38.81 287.94 C-38.81 287.25 -38.81 286.56 -38.81 285.85 C-38.82 250.08 -40.32 214.59 -44 179 C-44.17 177.29 -44.33 175.59 -44.5 173.88 C-45.8 160.85 -47.9 147.92 -50 135 C-50.16 134.03 -50.31 133.06 -50.48 132.06 C-56.15 94.97 -56.15 94.97 -69 60 C-54.48 60 -39.96 60 -25 60 C-27.34 46.21 -27.34 46.21 -35.85 36.7 C-40.65 34.07 -45.66 33 -51 32 C-51 26.39 -51 20.78 -51 15 C-47.96 15.08 -47.96 15.08 -44.86 15.17 C-28.84 16.08 -28.84 16.08 -14.75 10.14 C-12.62 7.89 -10.77 5.53 -9 3 C-6.08 -0.88 -5.72 0 0 0 Z M-434 433 C-434 469.3 -434 505.6 -434 543 C-291.44 543 -148.88 543 -2 543 C-2 506.7 -2 470.4 -2 433 C-144.56 433 -287.12 433 -434 433 Z M-434 554 C-434 586.67 -434 619.34 -434 653 C-291.44 653 -148.88 653 -2 653 C-2 620.33 -2 587.66 -2 554 C-144.56 554 -287.12 554 -434 554 Z " fill="#8FABB0" transform="translate(859,197)"/>
<path d="M0 0 C0.66 0.33 1.32 0.66 2 1 C5.75 0.74 9.47 0.35 13.2 -0.04 C17.47 0 20.89 0.89 24 4 C24.47 8.32 24.71 12.66 25 17 C33.58 17 42.16 17 51 17 C51.03 86.32 50.97 155.64 50.81 224.96 C50.78 237.28 50.75 249.6 50.72 261.93 C50.67 283.87 50.62 305.82 50.57 327.77 C50.52 348.99 50.48 370.22 50.43 391.45 C50.43 392.11 50.42 392.77 50.42 393.45 C50.41 400.77 50.39 408.09 50.37 415.41 C50.25 469.94 50.13 524.47 50 579 C45.46 579.09 40.92 579.14 36.38 579.19 C35.09 579.21 33.8 579.24 32.48 579.26 C31.24 579.27 29.99 579.28 28.71 579.29 C27.57 579.31 26.43 579.32 25.25 579.34 C20.78 578.87 17.44 577.34 14.15 574.27 C12.54 571.09 12.6 568.14 12.66 564.66 C12.66 563.56 12.66 563.56 12.66 562.44 C12.66 560.03 12.68 557.62 12.71 555.2 C12.71 553.53 12.72 551.85 12.72 550.18 C12.73 545.77 12.76 541.36 12.79 536.96 C12.82 532.46 12.84 527.96 12.85 523.46 C12.89 514.64 12.94 505.82 13 497 C11.74 497.16 10.47 497.32 9.17 497.49 C4.27 498.12 -0.56 498.22 -5.5 498.25 C-6.85 498.28 -6.85 498.28 -8.22 498.31 C-17.14 498.36 -23.49 496.19 -30 490 C-34.39 481.22 -30.91 464.8 -30.35 455.29 C-29.22 435.89 -28.62 416.49 -28.15 397.07 C-28.13 396.39 -28.12 395.71 -28.1 395.01 C-27.9 386.66 -27.71 378.31 -27.52 369.96 C-27.36 362.75 -27.19 355.53 -27.02 348.32 C-26.67 333.55 -26.33 318.77 -26 304 C-25.41 303.97 -24.82 303.95 -24.21 303.92 C-21.49 303.79 -18.77 303.66 -16.05 303.54 C-15.12 303.49 -14.2 303.45 -13.24 303.4 C-5.48 303.04 2.26 302.56 10 302 C9.88 300.77 9.76 299.53 9.63 298.26 C8.69 288.52 7.79 278.77 7 269.01 C6.92 268 6.84 266.99 6.75 265.95 C6.41 261.82 6.08 257.69 5.75 253.56 C4.59 238.97 4.59 238.97 2.93 224.43 C1.81 215.91 1.32 207.39 0.88 198.82 C0.5 192.37 -0.1 186.07 -1.08 179.69 C-3.02 166.78 -3.62 154.01 -3.91 140.97 C-3.97 138.72 -4.03 136.48 -4.1 134.23 C-4.25 128.36 -4.4 122.49 -4.54 116.62 C-4.68 110.74 -4.84 104.86 -4.99 98.97 C-5.2 91.06 -5.41 83.15 -5.61 75.23 C-6.01 59.44 -6.01 59.44 -6.46 43.64 C-6.52 41.77 -6.57 39.9 -6.63 38.02 C-6.81 32.28 -7.17 26.69 -8 21 C-9.24 10.92 -9.24 10.92 -6.21 6.23 C-4.24 4.01 -2.22 1.97 0 0 Z " fill="#15152B" transform="translate(354,258)"/>
<path d="M0 0 C28 0 56 0 84 0 C84.08 2.25 84.13 4.51 84.18 6.76 C84.21 8.02 84.24 9.27 84.27 10.57 C83.92 14.95 82.61 16.46 79.54 19.38 C74.78 24.4 74.53 31.9 74.7 38.47 C75.09 41.76 76.2 44.23 78 47 C77.49 47.44 76.99 47.88 76.47 48.33 C73.4 51.33 71.24 53.6 70.5 57.92 C70.5 62.23 70.91 66.36 71.5 70.62 C72.06 75.14 72.25 79.64 72.37 84.19 C72.4 85.08 72.43 85.96 72.46 86.87 C72.55 89.79 72.63 92.71 72.72 95.63 C72.78 97.7 72.85 99.77 72.91 101.84 C73.04 106.19 73.17 110.55 73.3 114.9 C73.46 120.36 73.63 125.82 73.8 131.27 C73.96 136.6 74.12 141.93 74.28 147.25 C74.31 148.3 74.34 149.35 74.38 150.43 C74.71 161.44 75.02 172.45 75.27 183.47 C75.29 184.37 75.31 185.27 75.33 186.2 C75.43 190.38 75.52 194.56 75.6 198.74 C75.8 208.24 76.65 217.43 78.18 226.81 C79.76 237.53 80.2 248.42 80.91 259.22 C81.4 266.55 81.91 273.82 82.96 281.1 C84.42 291.34 85.09 301.65 85.86 311.96 C86.13 315.52 86.4 319.08 86.68 322.63 C86.85 324.91 87.02 327.19 87.2 329.47 C87.28 330.52 87.36 331.58 87.44 332.66 C87.82 337.79 88.09 342.86 88 348 C79.24 349.51 70.82 350.14 61.95 350.06 C60.99 350.06 60.03 350.05 59.03 350.05 C56.69 350.04 54.34 350.02 52 350 C52.02 351.42 52.02 351.42 52.03 352.88 C52.29 379.37 51.85 405.83 51.19 432.31 C51.13 434.83 51.07 437.34 51.01 439.85 C50.51 460.7 49.71 481.52 48.56 502.35 C48.52 503.09 48.48 503.84 48.44 504.61 C48.4 505.34 48.36 506.07 48.32 506.82 C47.98 513.08 47.74 519.35 47.56 525.62 C47.53 526.43 47.49 527.24 47.46 528.07 C47.43 532.07 47.81 533.76 50.37 536.91 C56.47 541.75 60.8 543.07 68.52 543.32 C69.64 543.35 70.77 543.39 71.93 543.43 C73.36 543.47 74.78 543.52 76.25 543.56 C80.79 543.71 85.32 543.85 90 544 C90 560.17 90 576.34 90 593 C57.99 593 25.98 593 -7 593 C-7.33 589.7 -7.66 586.4 -8 583 C-6.77 582.98 -6.77 582.98 -5.52 582.96 C-1.81 582.88 1.91 582.78 5.62 582.69 C7.55 582.65 7.55 582.65 9.52 582.62 C10.76 582.58 12.01 582.55 13.29 582.51 C14.43 582.49 15.57 582.46 16.75 582.43 C20.36 581.95 22.85 580.79 26 579 C26.03 577.13 26.05 575.25 26.06 573.38 C26.07 572.33 26.09 571.29 26.1 570.21 C26.08 567.05 26.08 567.05 25.52 564.18 C25.01 561.05 24.77 558.03 24.63 554.86 C24.57 553.67 24.51 552.48 24.45 551.25 C24.4 549.98 24.34 548.7 24.28 547.39 C24.22 546.05 24.15 544.71 24.09 543.37 C23.89 539.15 23.69 534.92 23.5 530.69 C23.27 525.79 23.05 520.9 22.81 516 C22.72 514.06 22.63 512.11 22.55 510.17 C22.28 504.47 21.91 498.84 21.23 493.18 C20.78 488.83 20.68 484.46 20.54 480.08 C20.46 477.94 20.38 475.8 20.3 473.66 C20.26 472.54 20.22 471.43 20.18 470.28 C19.6 453.65 18.95 437.04 18 420.44 C17.16 405.65 16.64 390.87 16.18 376.07 C15.53 355.23 14.7 334.43 13.44 313.62 C13.37 312.55 13.31 311.48 13.24 310.37 C13.06 307.36 12.87 304.36 12.68 301.35 C12.63 300.47 12.58 299.59 12.52 298.68 C12.26 294.7 11.88 290.9 11 287 C9.8 273.56 13.33 260.55 17.07 247.76 C21.82 231.5 18.94 217.37 15.55 200.99 C13.84 192.48 12.62 183.92 11.44 175.31 C9.24 159.46 6.61 143.73 3.77 127.98 C3.17 124.66 2.58 121.33 2 118 C1.79 116.8 1.58 115.61 1.36 114.38 C0.82 109.35 0.81 104.36 0.81 99.31 C0.81 98.19 0.81 97.06 0.81 95.91 C0.88 87.23 1.27 78.59 1.88 69.94 C1.95 68.78 2.03 67.62 2.11 66.43 C3.27 51.23 3.27 51.23 6.05 46.04 C7.15 43.68 7.26 42.04 7.27 39.45 C7.27 38.58 7.27 37.72 7.27 36.83 C7.27 35.94 7.26 35.05 7.25 34.12 C7.26 33.24 7.27 32.35 7.27 31.44 C7.26 26.63 7.18 22.39 5 18 C4.15 17.44 3.31 16.87 2.44 16.29 C0 14 0 14 -0.49 10.55 C-0.43 9.29 -0.37 8.04 -0.31 6.75 C-0.27 5.49 -0.22 4.22 -0.18 2.92 C-0.12 1.96 -0.06 0.99 0 0 Z " fill="#73BFCF" transform="translate(276,212)"/>
<path d="M0 0 C149.16 0 298.32 0 452 0 C452 79.2 452 158.4 452 240 C302.84 240 153.68 240 0 240 C0 160.8 0 81.6 0 0 Z M9 10 C9 46.3 9 82.6 9 120 C151.56 120 294.12 120 441 120 C441 83.7 441 47.4 441 10 C298.44 10 155.88 10 9 10 Z M9 131 C9 163.67 9 196.34 9 230 C151.56 230 294.12 230 441 230 C441 197.33 441 164.66 441 131 C298.44 131 155.88 131 9 131 Z " fill="#11132B" transform="translate(416,620)"/>
<path d="M0 0 C16.17 0 32.34 0 49 0 C49 5.94 49 11.88 49 18 C47.02 18.66 45.04 19.32 43 20 C41.11 21.99 39.58 23.8 38 26 C37.6 26.53 37.2 27.05 36.79 27.6 C33.12 32.54 30.2 37.66 27 43 C51.75 43.5 51.75 43.5 77 44 C77 44.33 77 44.66 77 45 C62.81 45.33 48.62 45.66 34 46 C35.98 49.96 37.96 53.92 40 58 C49.42 83.24 52.44 112.33 55.63 138.96 C55.95 141.56 56.27 144.15 56.61 146.75 C58.58 161.86 60.05 177.02 61.36 192.2 C61.49 193.69 61.62 195.17 61.76 196.66 C63.87 220.35 64.17 244.09 64.13 267.85 C64.12 271.28 64.13 274.7 64.13 278.12 C64.16 293.1 64.02 308.04 63 323 C62.92 324.25 62.92 324.25 62.83 325.52 C60.47 359.79 60.47 359.79 53 371 C50.44 371.36 50.44 371.36 47.17 371.34 C45.95 371.34 44.73 371.34 43.47 371.34 C42.14 371.32 40.8 371.31 39.46 371.29 C38.1 371.29 36.73 371.28 35.37 371.28 C31.77 371.27 28.18 371.24 24.59 371.21 C20.92 371.18 17.25 371.16 13.59 371.15 C6.39 371.11 -0.8 371.06 -8 371 C-8 370.67 -8 370.34 -8 370 C-4.37 370 -0.74 370 3 370 C5.18 363.81 6.83 357.75 8.06 351.31 C8.23 350.44 8.4 349.56 8.58 348.66 C12.06 330.45 13.16 312.46 13.17 293.97 C13.17 292.37 13.17 290.77 13.18 289.17 C13.18 285.82 13.19 282.48 13.19 279.14 C13.19 275.78 13.19 272.43 13.21 269.08 C13.33 237.74 11.68 206.83 8.62 175.62 C8.52 174.5 8.41 173.37 8.29 172.21 C7.55 164.47 6.78 156.73 6 149 C5.91 148.11 5.82 147.22 5.73 146.3 C4 129.07 1.82 111.96 -1 94.88 C-1.12 94.14 -1.24 93.41 -1.36 92.66 C-2.69 84.64 -4.22 76.69 -6.04 68.77 C-6.2 68.07 -6.36 67.36 -6.53 66.64 C-9.07 55.93 -14.01 49.99 -23 44 C-17.05 42.28 -11.8 41.71 -5.62 41.81 C-4.77 41.82 -3.91 41.83 -3.03 41.83 C5.66 41.93 14.33 42.41 23 43 C22.36 35.77 21.77 29.25 16.91 23.59 C12.02 19.52 6.11 18.22 0 17 C0 11.39 0 5.78 0 0 Z " fill="#1D4F79" transform="translate(757,212)"/>
<path d="M0 0 C4.14 -0.02 8.29 -0.04 12.43 -0.05 C13.84 -0.06 15.25 -0.07 16.65 -0.08 C18.69 -0.09 20.72 -0.09 22.75 -0.1 C23.97 -0.1 25.19 -0.11 26.45 -0.11 C35.81 0.19 35.81 0.19 38.82 2.24 C50.35 16.67 52.82 36.32 56 54 C56.12 54.66 56.24 55.32 56.36 56.01 C63.25 94.14 67.54 132.44 69.83 171.11 C69.92 172.71 70.02 174.3 70.12 175.9 C70.81 186.89 71.17 197.84 71.2 208.86 C71.21 210 71.21 210 71.21 211.16 C71.23 215.2 71.24 219.23 71.24 223.27 C71.24 226.53 71.26 229.78 71.28 233.03 C71.73 298.85 71.73 298.85 59 328 C58.12 327.97 57.25 327.95 56.34 327.92 C53.06 327.84 49.79 327.82 46.51 327.82 C45.1 327.82 43.68 327.79 42.27 327.74 C37.68 327.6 33.44 327.67 29 329 C25.95 332.33 24.63 335.85 23 340 C17.94 346.86 10.04 351.64 1.73 353.51 C-5.03 353.9 -10.55 350.3 -15.69 346.31 C-21.87 340.74 -25.7 332.5 -26.25 324.25 C-26 321 -26 321 -24 319 C-18.6 317.65 -13.1 317.87 -7.57 317.9 C-6.08 317.9 -6.08 317.9 -4.57 317.91 C-1.42 317.91 1.73 317.92 4.88 317.94 C7.02 317.94 9.16 317.95 11.3 317.95 C16.53 317.96 21.77 317.98 27 318 C29.27 286.18 30.3 254.52 30.25 222.62 C30.25 220.95 30.25 219.28 30.25 217.6 C30.24 213.6 30.23 209.6 30.21 205.6 C30.21 204.12 30.2 202.65 30.2 201.17 C30.17 194.38 30.12 187.66 29.24 180.92 C28.85 177.81 28.76 174.7 28.64 171.57 C28.58 170.13 28.52 168.68 28.46 167.24 C28.42 166.48 28.39 165.73 28.36 164.94 C26.81 83.07 26.81 83.07 4 6 C3.67 5.01 3.34 4.02 3 3 C2.01 2.67 1.02 2.34 0 2 C0 1.34 0 0.68 0 0 Z " fill="#FC4C38" transform="translate(667,255)"/>
<path d="M0 0 C24.42 0 48.84 0 74 0 C74 5.94 74 11.88 74 18 C72.68 18.35 71.36 18.7 70 19.06 C62.23 21.68 56.97 27.06 52.9 34.07 C51.69 36.67 51.21 39.15 51 42 C52.65 42.33 54.3 42.66 56 43 C56.33 43.99 56.66 44.98 57 46 C58.21 47.04 59.47 48.04 60.75 49 C70.83 57.73 71.88 71.55 74 84 C74.22 85.23 74.44 86.46 74.66 87.73 C81.08 124.08 84.6 160.87 87.81 197.62 C87.92 198.89 88.04 200.16 88.15 201.47 C88.47 205.31 88.75 209.15 89 213 C89.07 214.08 89.07 214.08 89.14 215.19 C90.24 232.73 90.19 250.3 90.19 267.87 C90.19 271.25 90.19 274.62 90.21 278 C90.45 340.85 90.45 340.85 81 366 C80.75 366.7 80.5 367.4 80.24 368.11 C79 370 79 370 76.83 370.61 C75.5 370.68 75.5 370.68 74.14 370.75 C73.15 370.8 72.16 370.86 71.15 370.91 C66.03 371.05 60.93 371.11 55.81 371.06 C54.24 371.06 54.24 371.06 52.64 371.05 C50.09 371.04 47.55 371.02 45 371 C48 361 48 361 48.8 358.34 C56.55 332.29 56.34 304.54 56.26 277.63 C56.25 273.65 56.26 269.68 56.27 265.71 C56.34 236.35 55.05 207.1 52.25 177.88 C52.17 177.01 52.09 176.14 52 175.24 C49.22 145.95 45.04 116.8 39 88 C38.72 86.62 38.44 85.23 38.16 83.85 C37.49 80.55 36.76 77.28 36 74 C35.7 72.73 35.41 71.46 35.11 70.15 C33.48 63.49 31.59 57.72 27.97 51.88 C26.59 49.21 26.62 46.93 27 44 C26.34 43.67 25.68 43.34 25 43 C24.73 41.82 24.46 40.65 24.19 39.44 C22.43 31.83 18.27 26.48 12 22 C7.68 19.48 5.14 18.86 0 18 C0 12.06 0 6.12 0 0 Z " fill="#131325" transform="translate(681,212)"/>
<path d="M0 0 C21.45 0 42.9 0 65 0 C65 5.94 65 11.88 65 18 C62.36 18.66 59.72 19.32 57 20 C52.04 22.65 49.68 25.48 46.88 30.31 C46.54 30.89 46.2 31.46 45.85 32.05 C44.89 33.69 43.94 35.35 43 37 C42.54 37.79 42.08 38.59 41.6 39.41 C40.72 40.93 39.86 42.46 39 44 C39.95 43.94 40.91 43.88 41.89 43.82 C52.15 43.46 52.15 43.46 56.12 46 C82.64 88.43 80.36 161.7 82.46 210.24 C82.49 210.98 82.52 211.71 82.55 212.46 C82.63 214.4 82.71 216.34 82.78 218.28 C82.94 220.91 83.17 223.4 83.51 226 C84.3 232.8 84.18 239.65 84.2 246.49 C84.21 248.02 84.22 249.55 84.22 251.09 C84.24 256.02 84.25 260.95 84.25 265.88 C84.25 267.13 84.25 267.13 84.25 268.41 C84.28 290.96 83.98 313.42 82.56 335.94 C82.5 337.01 82.43 338.08 82.36 339.18 C82.17 342.15 81.96 345.12 81.75 348.09 C81.66 349.38 81.66 349.38 81.57 350.69 C81.3 354.26 80.87 357.51 80 361 C63.83 361 47.66 361 31 361 C30.13 344.75 30.13 344.75 29.86 339.7 C29.79 338.34 29.71 336.97 29.63 335.61 C29.6 334.94 29.57 334.26 29.53 333.57 C29.16 327.21 28.07 321.41 27 315 C42.84 314.5 42.84 314.5 59 314 C57.93 241.96 52.54 169.88 39 99 C38.79 97.89 38.58 96.79 38.36 95.65 C37.74 92.39 37.09 89.13 36.44 85.88 C36.16 84.46 36.16 84.46 35.87 83.02 C34.31 75.52 32.36 67.91 28.37 61.3 C27 59 27 59 27 57 C26.11 57.07 25.22 57.13 24.3 57.2 C15.38 57.84 6.47 58.33 -2.47 58.46 C-3.88 58.49 -5.29 58.53 -6.7 58.58 C-18.42 59.03 -18.42 59.03 -22.28 56.51 C-24.79 53.7 -25.89 51.83 -26.38 48.06 C-26.19 47.04 -26.19 47.04 -26 46 C-20.05 42.43 -12.87 42.84 -6.14 42.83 C-5.32 42.83 -4.5 42.83 -3.65 42.82 C-1.92 42.82 -0.19 42.81 1.54 42.81 C4.19 42.81 6.84 42.79 9.48 42.78 C11.17 42.77 12.86 42.77 14.54 42.77 C15.33 42.76 16.12 42.76 16.93 42.75 C20.85 42.76 23.6 43.03 27 45 C27.66 44.67 28.32 44.34 29 44 C27.66 41.28 26.31 38.58 24.94 35.88 C24.57 35.11 24.2 34.35 23.81 33.57 C20.56 27.22 16.63 22.59 10 19.69 C6.7 18.93 3.35 18.48 0 18 C0 12.06 0 6.12 0 0 Z " fill="#B6D8C7" transform="translate(614,212)"/>
<path d="M0 0 C3.98 1.38 5.51 2.68 8.06 6.06 C8.7 9.54 8.58 12.92 8.44 16.44 C8.42 17.82 8.42 17.82 8.39 19.23 C8.29 24.25 7.89 29.11 7.06 34.06 C11.68 33.73 16.3 33.4 21.06 33.06 C24.91 39.25 26.53 44.45 27.18 51.59 C27.26 52.42 27.34 53.25 27.42 54.1 C28.32 63.97 28.61 73.86 28.88 83.77 C28.94 85.82 29 87.87 29.06 89.93 C29.23 95.31 29.38 100.68 29.53 106.06 C29.68 111.4 29.85 116.74 30.01 122.08 C30.49 138.21 30.96 154.35 31.33 170.48 C31.37 172.28 31.41 174.08 31.45 175.87 C31.53 179.17 31.6 182.47 31.66 185.77 C31.86 195.28 32.71 204.49 34.24 213.87 C35.83 224.59 36.26 235.48 36.97 246.29 C37.46 253.61 37.97 260.89 39.02 268.16 C40.48 278.4 41.15 288.72 41.92 299.03 C42.19 302.58 42.46 306.14 42.74 309.7 C42.91 311.97 43.09 314.25 43.26 316.53 C43.34 317.59 43.42 318.64 43.5 319.73 C43.88 324.85 44.16 329.92 44.06 335.06 C32.02 337.13 20.26 337.29 8.06 337.06 C4.07 323.71 2.6 309.94 1.15 296.12 C0.35 288.48 -0.6 280.88 -1.64 273.27 C-2.22 269.01 -2.78 264.75 -3.34 260.49 C-3.72 257.61 -4.1 254.74 -4.49 251.86 C-4.74 249.92 -5 247.99 -5.26 246.05 C-5.51 244.13 -5.77 242.22 -6.02 240.3 C-6.28 238.38 -6.53 236.45 -6.78 234.53 C-7.38 230.03 -8.01 225.55 -8.78 221.07 C-11.32 205.92 -11.57 190.78 -11.56 175.44 C-11.56 173.22 -11.57 171 -11.57 168.78 C-11.59 142.33 -9.25 116.65 -5.3 90.48 C-3.94 81.45 -2.91 72.39 -1.96 63.31 C-1 54.15 0.39 45.11 2.06 36.06 C1.03 35.72 1.03 35.72 -0.02 35.36 C-0.92 35.04 -1.82 34.71 -2.75 34.38 C-3.64 34.06 -4.54 33.75 -5.46 33.43 C-8.61 31.69 -9.53 30.36 -10.94 27.06 C-11.95 18.94 -11.98 10.84 -6.94 4.06 C-6.32 3.22 -5.7 2.37 -5.06 1.5 C-2.94 0.06 -2.94 0.06 0 0 Z " fill="#FC7D29" transform="translate(319.9375,224.9375)"/>
<path d="M0 0 C8.64 13.59 10.69 29.71 13.5 45.31 C13.73 46.56 13.73 46.56 13.96 47.83 C19.1 76.18 22.57 104.63 25.7 133.26 C25.99 135.9 26.28 138.54 26.58 141.18 C30.92 179.9 32.3 218.04 32 257 C28.41 257.98 25.22 258.11 21.48 258.1 C20.23 258.09 18.98 258.09 17.7 258.09 C16.39 258.08 15.09 258.07 13.75 258.06 C11.77 258.06 11.77 258.06 9.76 258.05 C6.51 258.04 3.25 258.02 0 258 C0.21 258.75 0.42 259.49 0.63 260.26 C2.45 267.06 3.5 273.41 3.69 280.44 C3.72 281.34 3.75 282.23 3.79 283.16 C4.03 290.11 4.12 297.05 4 304 C5.32 304.33 6.64 304.66 8 305 C1.94 307.14 -3.55 307.24 -9.94 307.12 C-10.91 307.12 -11.88 307.11 -12.88 307.1 C-15.25 307.07 -17.63 307.04 -20 307 C-20.44 302.27 -20.86 297.54 -21.28 292.82 C-21.43 291.21 -21.57 289.61 -21.72 288.01 C-22.64 277.95 -23.16 268.11 -23 258 C-16.4 258 -9.8 258 -3 258 C-3.53 251.74 -4.06 245.48 -4.6 239.23 C-4.78 237.1 -4.96 234.98 -5.14 232.86 C-6.09 221.66 -7.08 210.5 -8.58 199.36 C-9.15 194.81 -9.47 190.25 -9.75 185.67 C-9.92 183.09 -9.92 183.09 -10.5 181.02 C-11.16 178.34 -11.24 175.75 -11.38 173 C-11.75 167.33 -12.42 161.8 -13.31 156.19 C-14.61 147.99 -15.66 139.78 -16.63 131.53 C-20.12 101.87 -24.37 72.34 -30 43 C-30.12 42.35 -30.25 41.7 -30.38 41.02 C-31.21 36.69 -32.09 32.38 -33 28.06 C-33.21 27 -33.43 25.93 -33.64 24.84 C-35.61 15.85 -39.35 8.26 -45 1 C-41 0.85 -37 0.71 -33.01 0.57 C-31 0.5 -28.99 0.43 -26.98 0.36 C-17.98 0.04 -9.01 -0.06 0 0 Z " fill="#2F8299" transform="translate(641,269)"/>
<path d="M0 0 C1.35 0.27 2.69 0.56 4.03 0.86 C4.71 0.99 5.38 1.13 6.08 1.27 C9.43 1.98 11.65 2.69 14.53 4.61 C14.87 7.46 15.02 10.11 15.04 12.97 C15.06 13.83 15.08 14.7 15.1 15.59 C15.15 18.47 15.19 21.34 15.23 24.22 C15.26 26.22 15.3 28.23 15.34 30.23 C15.44 35.52 15.53 40.82 15.61 46.11 C15.74 54.55 15.89 62.98 16.05 71.41 C16.1 74.34 16.15 77.27 16.19 80.2 C16.33 89.08 16.6 97.9 17.31 106.75 C17.59 110.31 17.7 113.85 17.78 117.42 C17.81 118.77 17.84 120.11 17.87 121.46 C17.89 122.13 17.9 122.81 17.92 123.51 C18.16 133.85 18.52 144.13 19.59 154.42 C21.1 169.52 20.99 183.46 18.24 198.41 C16.49 208.17 15.37 217.95 14.34 227.8 C14.26 228.62 14.17 229.44 14.08 230.29 C12.94 241.41 12.03 252.49 11.71 263.67 C11.53 267.61 11.53 267.61 11.05 270.82 C10.49 274.94 10.21 279.02 10 283.17 C9.95 283.96 9.91 284.75 9.87 285.56 C9.73 288.06 9.6 290.55 9.47 293.05 C9.38 294.75 9.29 296.45 9.19 298.15 C8.97 302.31 8.75 306.46 8.53 310.61 C-2.36 310.61 -13.25 310.61 -24.47 310.61 C-24.6 278.17 -24.48 245.74 -24.21 213.3 C-24.17 209.31 -24.14 205.31 -24.12 201.31 C-24.01 180.42 -23.52 159.76 -21.45 138.98 C-21.35 137.96 -21.35 137.96 -21.25 136.93 C-21.18 136.26 -21.11 135.58 -21.04 134.89 C-20.25 126.65 -19.79 118.4 -19.34 110.14 C-19.29 109.38 -19.25 108.62 -19.21 107.83 C-18.95 103.22 -18.71 98.61 -18.47 94 C-18.14 87.75 -17.8 81.49 -17.46 75.23 C-17.34 73.09 -17.23 70.95 -17.11 68.81 C-16.76 62.21 -16.31 55.64 -15.68 49.07 C-15.36 45.29 -15.27 41.51 -15.18 37.72 C-15.13 36.11 -15.07 34.49 -15.01 32.88 C-14.92 30.39 -14.84 27.91 -14.8 25.42 C-14.48 9.73 -14.48 9.73 -10.07 4.59 C-4.53 -0.51 -4.53 -0.51 0 0 Z " fill="#FDEEDF" transform="translate(226.46875,256.390625)"/>
<path d="M0 0 C2.64 0 5.28 0 8 0 C8 0.93 8 1.86 8 2.81 C8.02 11.57 8.06 20.32 8.13 29.08 C8.17 33.58 8.19 38.08 8.2 42.58 C8.2 46.92 8.23 51.27 8.27 55.61 C8.29 57.27 8.29 58.93 8.29 60.58 C8.28 62.9 8.31 65.23 8.34 67.55 C8.33 68.23 8.32 68.91 8.31 69.62 C8.4 73.39 8.94 74.93 11.35 77.9 C15.36 81.07 18.45 81.16 23.42 81.32 C24.67 81.36 25.93 81.4 27.22 81.44 C28.53 81.48 29.84 81.52 31.19 81.56 C32.52 81.61 33.86 81.65 35.19 81.69 C38.46 81.8 41.73 81.9 45 82 C45 79.69 45 77.38 45 75 C45.33 75 45.66 75 46 75 C46 84.24 46 93.48 46 103 C-3.84 103.07 -53.67 102.87 -103.5 102.55 C-113.41 102.49 -123.32 102.43 -133.22 102.37 C-153.48 102.25 -173.74 102.13 -194 102 C-194.12 94.24 -194.12 94.24 -193.03 92.07 C-192.35 91.42 -192.35 91.42 -191.65 90.76 C-190.88 90.01 -190.88 90.01 -190.09 89.23 C-189.24 88.47 -189.24 88.47 -188.38 87.69 C-187.79 87.13 -187.2 86.58 -186.6 86.01 C-180.4 80.24 -173.77 75.07 -167 70 C-165.67 68.99 -164.34 67.98 -163.02 66.96 C-155.63 61.36 -148.15 55.94 -140.48 50.74 C-136.83 48.24 -136.83 48.24 -135.41 44.21 C-134.72 38.36 -134.63 32.45 -134.44 26.56 C-134.37 24.75 -134.37 24.75 -134.31 22.9 C-134.2 19.93 -134.1 16.97 -134 14 C-133.67 14 -133.34 14 -133 14 C-132.99 14.99 -132.99 14.99 -132.99 15.99 C-132.95 22.82 -132.88 29.65 -132.79 36.48 C-132.76 39.03 -132.74 41.58 -132.73 44.13 C-132.71 47.79 -132.66 51.45 -132.61 55.11 C-132.61 56.26 -132.61 57.4 -132.61 58.58 C-132.59 59.64 -132.57 60.7 -132.55 61.79 C-132.54 62.73 -132.53 63.66 -132.52 64.63 C-132.2 67.14 -132.2 67.14 -130.15 68.76 C-122.21 73.33 -110.86 71.53 -102.38 69.31 C-97.28 67.87 -94.07 66.4 -91 62 C-90.67 58.04 -90.34 54.08 -90 50 C-57.99 50 -25.98 50 7 50 C7 33.83 7 17.66 7 1 C4.69 1 2.38 1 0 1 C0 0.67 0 0.34 0 0 Z " fill="#8ABEC4" transform="translate(359,755)"/>
<path d="M0 0 C11.88 0 23.76 0 36 0 C36.27 27.81 35.88 55.58 35.19 83.38 C35.13 85.89 35.07 88.4 35.01 90.91 C34.5 111.74 33.7 132.54 32.56 153.34 C32.52 154.09 32.48 154.84 32.44 155.61 C32.4 156.34 32.36 157.06 32.32 157.81 C31.98 164.08 31.74 170.35 31.56 176.62 C31.53 177.43 31.49 178.24 31.46 179.07 C31.43 183.07 31.81 184.76 34.37 187.91 C40.47 192.75 44.8 194.07 52.52 194.32 C53.64 194.35 54.77 194.39 55.93 194.43 C57.36 194.47 58.78 194.52 60.25 194.56 C64.79 194.71 69.32 194.85 74 195 C74 211.17 74 227.34 74 244 C41.99 244 9.98 244 -23 244 C-23.5 239.05 -23.5 239.05 -24 234 C-22.77 233.98 -22.77 233.98 -21.52 233.96 C-17.81 233.88 -14.09 233.78 -10.38 233.69 C-9.09 233.66 -7.8 233.64 -6.48 233.62 C-5.24 233.58 -3.99 233.55 -2.71 233.51 C-1.57 233.49 -0.43 233.46 0.75 233.43 C4.36 232.95 6.85 231.79 10 230 C10.03 228.13 10.05 226.25 10.06 224.38 C10.07 223.33 10.09 222.29 10.1 221.21 C10.08 218.05 10.08 218.05 9.52 215.18 C9.01 212.05 8.77 209.03 8.63 205.86 C8.57 204.67 8.51 203.48 8.45 202.25 C8.4 200.98 8.34 199.7 8.28 198.39 C8.22 197.05 8.15 195.71 8.09 194.37 C7.89 190.15 7.69 185.92 7.5 181.69 C7.27 176.79 7.05 171.9 6.81 167 C6.72 165.06 6.63 163.11 6.55 161.17 C6.28 155.47 5.91 149.84 5.23 144.18 C4.78 139.83 4.68 135.46 4.54 131.08 C4.46 128.94 4.38 126.79 4.3 124.65 C4.24 122.98 4.24 122.98 4.18 121.27 C3.58 104.07 2.9 86.87 1.94 69.69 C0.65 46.46 -0.17 23.26 0 0 Z " fill="#FAEADD" transform="translate(292,561)"/>
<path d="M0 0 C230.34 0 460.68 0 698 0 C698.33 4.29 698.66 8.58 699 13 C660.16 13.03 621.32 13.05 582.48 13.06 C580.14 13.06 577.8 13.06 575.46 13.06 C477.58 13.09 379.71 12.97 190.45 12.51 C186.93 12.5 183.41 12.49 179.89 12.48 C119.92 12.33 59.96 12.17 0 12 C0 8.04 0 4.08 0 0 Z " fill="#7EB4BF" transform="translate(163,165)"/>
<path d="M0 0 C4.62 4.62 2.18 20.59 2.21 26.82 C2.21 28.28 2.22 29.74 2.24 31.2 C2.26 35.14 2.28 39.08 2.3 43.02 C2.33 47.19 2.35 51.35 2.38 55.52 C2.42 62.53 2.46 69.54 2.5 76.55 C2.56 86.33 2.62 96.11 2.68 105.89 C2.72 112.76 2.76 119.64 2.8 126.51 C2.81 128.15 2.82 129.79 2.83 131.43 C2.96 152.62 3.03 173.81 3 195 C-3.21 195.79 -9.23 196.21 -15.5 196.25 C-16.85 196.28 -16.85 196.28 -18.22 196.31 C-27.14 196.36 -33.49 194.19 -40 188 C-44.39 179.22 -40.91 162.8 -40.35 153.29 C-39.22 133.89 -38.62 114.49 -38.15 95.07 C-38.13 94.39 -38.12 93.71 -38.1 93.01 C-37.9 84.66 -37.71 76.31 -37.52 67.96 C-37.36 60.75 -37.19 53.53 -37.02 46.32 C-36.67 31.55 -36.33 16.77 -36 2 C-35.11 1.96 -35.11 1.96 -34.2 1.92 C-31.47 1.81 -28.73 1.68 -26 1.56 C-25.07 1.52 -24.13 1.48 -23.17 1.44 C-15.44 1.09 -7.73 -0.32 0 0 Z " fill="#1E5D89" transform="translate(364,560)"/>
<path d="M0 0 C75.9 0 151.8 0 230 0 C230 4.95 230 9.9 230 15 C215.81 15 201.62 15 187 15 C186.6 27.83 186.6 27.83 190.5 32.19 C191.32 32.79 192.15 33.38 193 34 C194.04 37.11 194.2 39.49 194.32 42.76 C194.38 44.44 194.38 44.44 194.44 46.15 C194.48 47.32 194.52 48.48 194.56 49.69 C194.61 50.87 194.65 52.05 194.69 53.26 C194.8 56.17 194.9 59.09 195 62 C190.05 62.33 185.1 62.66 180 63 C180 62.34 180 61.68 180 61 C179.01 60.67 178.02 60.34 177 60 C173.6 54.94 174.38 48.28 175.46 42.53 C176.66 38.39 178.02 35.8 181.12 32.81 C185.35 27.93 185.35 27.93 185 15 C172.46 15.33 159.92 15.66 147 16 C146.67 18.97 146.34 21.94 146 25 C145.67 25 145.34 25 145 25 C145 21.7 145 18.4 145 15 C130.48 15 115.96 15 101 15 C101 19.62 101 24.24 101 29 C102.32 29.66 103.64 30.32 105 31 C108.07 33.38 108.46 35.21 109 39 C109.19 42.33 109.23 45.66 109.25 49 C109.27 49.89 109.29 50.78 109.31 51.7 C109.34 56.64 109.2 59.96 106 64 C105.67 63.34 105.34 62.68 105 62 C100.38 62 95.76 62 91 62 C89.86 57.43 89.74 53.31 89.69 48.62 C89.64 47.37 89.64 47.37 89.6 46.09 C89.54 40.51 90.29 37.41 94 33 C95.32 31.68 96.64 30.36 98 29 C98.33 24.38 98.66 19.76 99 15 C85.14 15 71.28 15 57 15 C57.5 21.93 57.5 21.93 58 29 C59.98 29.99 61.96 30.98 64 32 C64.33 41.9 64.66 51.8 65 62 C51.8 60.8 51.8 60.8 48 59 C45.71 52.14 45.32 41.78 48.3 35.07 C49.76 33.17 51.19 31.56 53 30 C54.88 28.12 54.39 24.96 54.56 22.44 C54.65 21.24 54.73 20.04 54.82 18.81 C54.91 17.42 54.91 17.42 55 16 C53.85 16.02 52.7 16.04 51.52 16.06 C47.23 16.14 42.95 16.18 38.67 16.22 C36.82 16.24 34.97 16.27 33.12 16.3 C30.45 16.35 27.78 16.37 25.12 16.39 C24.3 16.41 23.47 16.43 22.63 16.45 C17.23 16.46 14.32 15.5 10 12 C8.97 11.2 7.94 10.39 6.88 9.56 C4.21 7.19 2.05 4.91 0 2 C0 1.34 0 0.68 0 0 Z " fill="#040C2A" transform="translate(175,197)"/>
<path d="M0 0 C5.65 2.83 10.85 6.69 13.75 12.38 C13.91 13.06 14.08 13.74 14.25 14.44 C11.28 16.14 9.16 16.69 5.74 16.68 C4.86 16.68 3.98 16.69 3.06 16.69 C2.12 16.68 1.17 16.68 0.19 16.67 C-0.79 16.67 -1.77 16.67 -2.78 16.67 C-4.86 16.66 -6.93 16.66 -9 16.64 C-12.17 16.63 -15.34 16.62 -18.51 16.62 C-20.53 16.62 -22.54 16.61 -24.56 16.61 C-25.5 16.6 -26.45 16.6 -27.43 16.6 C-31.65 16.57 -35.63 16.52 -39.75 15.44 C-39.56 16.16 -39.36 16.87 -39.16 17.61 C-36.93 26.19 -35.52 34.75 -34.29 43.52 C-33.41 49.37 -32.21 54.08 -29.75 59.44 C-29.13 62.05 -28.57 64.62 -28.06 67.25 C-25.73 78.47 -22.2 89.31 -18.75 100.23 C-17.21 105.16 -15.73 110.11 -14.25 115.06 C-13.87 116.34 -13.87 116.34 -13.48 117.65 C-12.9 119.58 -12.33 121.51 -11.75 123.44 C-11.42 123.44 -11.09 123.44 -10.75 123.44 C-10.46 122.24 -10.17 121.04 -9.87 119.8 C-7.52 110.21 -5.03 100.67 -2.27 91.18 C-0.62 85.49 0.99 79.78 2.56 74.07 C3.17 71.86 3.78 69.65 4.39 67.45 C4.8 65.99 5.2 64.53 5.6 63.06 C6.16 61.01 6.73 58.95 7.3 56.89 C7.63 55.7 7.95 54.5 8.29 53.27 C9.25 50.44 9.25 50.44 11.25 48.44 C13.5 48.39 13.5 48.39 16.26 48.68 C17.24 48.78 18.23 48.87 19.25 48.97 C20.28 49.08 21.31 49.2 22.38 49.31 C23.42 49.42 24.46 49.52 25.53 49.63 C28.1 49.89 30.68 50.16 33.25 50.44 C33.12 51.85 32.98 53.27 32.84 54.69 C32.73 55.87 32.73 55.87 32.62 57.08 C31.97 61.25 30.17 64.71 28.25 68.44 C27.35 70.19 27.35 70.19 26.44 71.98 C20.53 83.39 14.15 94.54 7.8 105.71 C5.54 109.68 3.3 113.65 1.06 117.62 C0.7 118.27 0.34 118.91 -0.04 119.57 C-0.95 121.19 -1.85 122.81 -2.75 124.44 C-3.14 125.11 -3.53 125.79 -3.93 126.49 C-6.2 131.88 -6.03 138.04 -6.31 143.81 C-6.38 145.06 -6.38 145.06 -6.44 146.33 C-6.55 148.37 -6.65 150.4 -6.75 152.44 C-7.74 152.11 -8.73 151.78 -9.75 151.44 C-9.73 150.82 -9.7 150.21 -9.68 149.57 C-9.66 148.77 -9.64 147.96 -9.62 147.12 C-9.6 146.32 -9.58 145.52 -9.55 144.7 C-9.59 142.15 -9.59 142.15 -11.75 139.44 C-15.32 138.7 -15.32 138.7 -18.75 138.44 C-16.75 136.44 -16.75 136.44 -13.75 135.44 C-16.28 129.08 -19.52 123.21 -22.88 117.25 C-23.48 116.17 -24.09 115.09 -24.71 113.98 C-30.19 104.28 -35.94 94.75 -41.8 85.27 C-55.87 62.4 -55.87 62.4 -55.88 52.27 C-55.88 51.05 -55.89 49.84 -55.89 48.58 C-55.88 47.3 -55.88 46.01 -55.88 44.69 C-55.87 43.38 -55.87 42.07 -55.86 40.73 C-55.72 14.45 -55.72 14.45 -52.75 8.44 C-49.58 5.35 -47.16 3.94 -42.75 3.44 C-42.75 5.75 -42.75 8.06 -42.75 10.44 C-42.11 9.74 -41.47 9.04 -40.81 8.31 C-30.23 -2.3 -14.19 -5.21 0 0 Z " fill="#31B7CB" transform="translate(552.75,253.5625)"/>
<path d="M0 0 C28 0 56 0 84 0 C84.08 2.25 84.13 4.51 84.18 6.76 C84.21 8.02 84.24 9.27 84.27 10.57 C83.92 14.95 82.61 16.46 79.54 19.38 C74.78 24.4 74.53 31.9 74.7 38.47 C75.09 41.76 76.2 44.23 78 47 C74.04 51.45 74.04 51.45 70 56 C67.35 53.35 66.4 50.44 65 47 C60.38 47 55.76 47 51 47 C51.07 45.04 51.14 43.07 51.21 41.05 C51.27 38.47 51.32 35.89 51.38 33.31 C51.43 32.02 51.48 30.73 51.53 29.39 C51.86 22.91 51.86 22.91 49.73 17 C47.41 14.99 45.49 14.05 42.44 13.75 C37.95 16.05 35.56 20.31 34 25 C33.88 27.46 33.82 29.92 33.81 32.38 C33.8 33.68 33.78 34.99 33.77 36.34 C33.99 39.9 34.27 41.92 36 45 C38.61 46.25 38.61 46.25 41.62 46.81 C42.63 47.05 43.63 47.28 44.66 47.52 C45.82 47.76 45.82 47.76 47 48 C46.87 48.88 46.74 49.75 46.6 50.66 C43.93 68.75 41.47 86.85 39.46 105.04 C39.3 106.48 39.14 107.93 38.98 109.38 C38.9 110.09 38.82 110.8 38.74 111.53 C38.17 116.61 37.55 121.68 36.9 126.75 C36.76 127.82 36.76 127.82 36.62 128.91 C36.19 132.28 35.75 135.64 35.31 139 C34.14 147.99 33.47 156.95 33 166 C32.67 166 32.34 166 32 166 C31.39 159.4 30.78 152.79 30.19 146.19 C30.1 145.18 30.01 144.18 29.91 143.14 C28.49 127.29 27.3 111.42 26.26 95.53 C25.42 82.8 24.26 70.19 22.55 57.54 C22.08 54 21.88 50.58 22 47 C24.48 46.5 24.48 46.5 27 46 C23.11 35.09 13.75 23.93 4 17.81 C1.86 16.26 1.86 16.26 0 14 C-0.39 10.57 -0.39 10.57 -0.25 6.76 C-0.21 5.5 -0.18 4.23 -0.14 2.93 C-0.09 1.96 -0.05 1 0 0 Z " fill="#FBEADF" transform="translate(276,212)"/>
<path d="M0 0 C0.99 0.33 1.98 0.66 3 1 C3.3 8.74 2.53 15.66 0.75 23.19 C0.55 24.1 0.34 25.01 0.13 25.96 C-3.1 40.19 -6.86 54.27 -10.81 68.31 C-13.33 77.28 -15.84 86.24 -18.14 95.27 C-18.45 96.52 -18.77 97.77 -19.1 99.06 C-19.69 101.39 -20.27 103.72 -20.84 106.05 C-21.1 107.08 -21.36 108.11 -21.62 109.16 C-21.84 110.06 -22.06 110.95 -22.29 111.87 C-23 114 -23 114 -25 116 C-40.46 68.19 -40.46 68.19 -44.45 47.95 C-44.98 45.7 -44.98 45.7 -47 43 C-47.56 40.55 -47.56 40.55 -48 37.66 C-48.25 36.06 -48.25 36.06 -48.5 34.44 C-48.66 33.32 -48.83 32.21 -49 31.06 C-49.33 28.89 -49.67 26.71 -50 24.54 C-50.14 23.57 -50.29 22.6 -50.44 21.61 C-51.25 16.4 -52.13 11.2 -53 6 C-52.38 6 -51.76 6 -51.13 6.01 C-44.7 6.03 -38.28 6.04 -31.86 6.05 C-29.46 6.06 -27.06 6.07 -24.66 6.08 C-21.22 6.09 -17.77 6.09 -14.33 6.1 C-12.72 6.11 -12.72 6.11 -11.08 6.11 C-10.08 6.11 -9.08 6.11 -8.04 6.11 C-7.16 6.12 -6.29 6.12 -5.38 6.12 C-3.11 6.01 -1.17 5.63 1 5 C0.5 2.52 0.5 2.52 0 0 Z " fill="#101223" transform="translate(566,263)"/>
<path d="M0 0 C8.25 0 16.5 0 25 0 C25.03 16.04 25.05 32.08 25.06 48.12 C25.06 49.33 25.06 50.54 25.07 51.78 C25.09 90.13 24.91 128.47 24.5 166.81 C24.49 167.94 24.48 169.07 24.46 170.23 C24.32 183.82 24.16 197.41 24 211 C23.67 211 23.34 211 23 211 C22.89 209.8 22.89 209.8 22.77 208.57 C21.43 194.26 20.05 179.96 18.44 165.69 C18.32 164.65 18.21 163.62 18.09 162.55 C17.57 158.05 16.97 153.63 16.02 149.2 C14.77 143.26 14.17 137.27 13.54 131.23 C13.13 127.3 12.7 123.38 12.27 119.45 C12.17 118.57 12.08 117.7 11.98 116.8 C10.71 105.27 9.33 93.76 7.96 82.25 C7.5 78.38 7.04 74.51 6.58 70.64 C4.8 55.65 4.8 55.65 2.97 40.66 C2.58 37.55 2.2 34.44 1.82 31.32 C1.58 29.35 1.32 27.38 1.07 25.41 C0.02 16.85 -0.13 8.6 0 0 Z " fill="#3D84A7" transform="translate(380,275)"/>
<path d="M0 0 C2.77 -0 5.53 -0.01 8.3 -0.01 C12.53 -0.01 16.76 -0.02 20.98 -0.01 C22.48 -0.01 23.98 -0.01 25.49 -0.01 C27.47 -0.02 29.46 -0.01 31.45 -0.01 C32.55 -0.01 33.65 -0 34.78 -0 C37.2 0.12 37.2 0.12 38.2 1.12 C38.3 3.93 38.34 6.7 38.33 9.5 C38.33 10.28 38.33 11.06 38.34 11.87 C38.33 15.2 38.26 17.94 37.2 21.12 C37.12 22.61 37.09 24.1 37.1 25.59 C37.11 26.49 37.11 27.39 37.11 28.32 C37.13 29.78 37.13 29.78 37.14 31.28 C37.14 32.29 37.15 33.3 37.15 34.34 C37.17 38.66 37.19 42.98 37.22 47.3 C37.24 50.46 37.25 53.62 37.26 56.78 C37.28 58.21 37.28 58.21 37.29 59.67 C37.31 66.6 36.78 73.15 36.2 80.12 C27.62 80.12 19.04 80.12 10.2 80.12 C9.94 76.87 9.68 73.61 9.42 70.36 C8.04 66.68 7.46 66.38 4.11 64.7 C2.82 64.15 1.52 63.62 0.2 63.12 C0.18 62.07 0.18 62.07 0.16 61 C0.08 57.81 -0.01 54.62 -0.11 51.44 C-0.13 50.33 -0.16 49.23 -0.18 48.09 C-0.22 47.03 -0.25 45.96 -0.29 44.86 C-0.31 43.88 -0.34 42.9 -0.37 41.89 C-1.11 37.1 -3.42 34.5 -6.8 31.12 C-6.8 26.5 -6.8 21.88 -6.8 17.12 C7.39 17.12 21.58 17.12 36.2 17.12 C36.2 12.17 36.2 7.22 36.2 2.12 C-43.33 2.12 -122.86 2.12 -204.8 2.12 C-204.8 1.79 -204.8 1.46 -204.8 1.12 C-52.24 0.02 -52.24 0.02 0 0 Z " fill="#F7E8DA" transform="translate(368.7989196777344,194.87661743164063)"/>
<path d="M0 0 C23.43 0 46.86 0 71 0 C72.21 3.62 72.11 6.93 72.06 10.69 C72.06 11.39 72.05 12.09 72.05 12.81 C72.04 14.54 72.02 16.27 72 18 C71.41 18.24 70.82 18.48 70.21 18.73 C57.7 24.04 53.03 32.75 48 45 C46.21 45.09 46.21 45.09 44.39 45.18 C42.82 45.27 41.25 45.35 39.69 45.44 C38.9 45.48 38.12 45.52 37.31 45.56 C36.55 45.6 35.79 45.64 35.01 45.68 C34.32 45.72 33.62 45.76 32.9 45.79 C30.78 45.96 30.78 45.96 28 47 C27.48 45.91 26.96 44.83 26.43 43.71 C25.72 42.27 25.02 40.82 24.31 39.38 C23.8 38.31 23.8 38.31 23.28 37.21 C20.09 30.71 16.8 25.37 10 22.19 C9.17 21.79 8.35 21.39 7.5 20.98 C4.65 19.78 4.65 19.78 0 19 C0 12.73 0 6.46 0 0 Z " fill="#F6E7DD" transform="translate(540,212)"/>
<path d="M0 0 C24.42 0 48.84 0 74 0 C74 5.94 74 11.88 74 18 C72.68 18.35 71.36 18.7 70 19.06 C61.5 21.92 55.97 28.14 52 36 C51.01 38.31 50.02 40.62 49 43 C41.08 43 33.16 43 25 43 C24.34 40.36 23.68 37.72 23 35 C19.47 27.28 13.84 22.27 6 19 C4.02 18.67 2.04 18.34 0 18 C0 12.06 0 6.12 0 0 Z " fill="#C9D1CF" transform="translate(681,212)"/>
<path d="M0 0 C101.31 0 202.62 0 307 0 C307 0.33 307 0.66 307 1 C206.02 1 105.04 1 1 1 C1 78.88 1 156.76 1 237 C148.84 237 296.68 237 449 237 C448.67 235.68 448.34 234.36 448 233 C447.92 231.63 447.89 230.26 447.89 228.88 C447.89 228.07 447.9 227.25 447.9 226.41 C447.9 225.52 447.91 224.63 447.92 223.71 C447.92 222.76 447.92 221.81 447.93 220.83 C447.94 217.64 447.96 214.44 447.98 211.25 C447.99 208.96 448 206.68 448.01 204.39 C448.03 198.18 448.07 191.96 448.1 185.75 C448.13 179.26 448.16 172.76 448.19 166.27 C448.24 155.37 448.3 144.48 448.35 133.58 C448.41 122.35 448.47 111.13 448.52 99.9 C448.52 98.85 448.52 98.85 448.53 97.78 C448.56 91.7 448.58 85.62 448.61 79.54 C448.74 53.36 448.87 27.18 449 1 C413.03 1 377.06 1 340 1 C340 0.67 340 0.34 340 0 C376.3 0 412.6 0 450 0 C450.33 78.87 450.66 157.74 451 239 C301.84 239 152.68 239 -1 239 C-1 154.75 -1 154.75 -0.8 124.97 C-0.77 120.94 -0.75 116.92 -0.72 112.89 C-0.65 101.41 -0.57 89.92 -0.5 78.44 C-0.33 52.55 -0.17 26.67 0 0 Z " fill="#0B0A1B" transform="translate(417,621)"/>
<path d="M0 0 C21.45 0 42.9 0 65 0 C65 5.94 65 11.88 65 18 C62.36 18.66 59.72 19.32 57 20 C52.01 22.66 49.67 25.51 46.88 30.38 C40.23 41.77 40.23 41.77 38 44 C36.48 44.07 34.96 44.08 33.44 44.06 C32.61 44.05 31.78 44.04 30.93 44.04 C30.3 44.02 29.66 44.01 29 44 C28.15 42.26 28.15 42.26 27.28 40.49 C26.5 38.95 25.72 37.41 24.94 35.88 C24.57 35.11 24.2 34.35 23.81 33.57 C20.56 27.22 16.63 22.59 10 19.69 C6.7 18.93 3.35 18.48 0 18 C0 12.06 0 6.12 0 0 Z " fill="#F5E8E1" transform="translate(614,212)"/>
<path d="M0 0 C13.86 0 27.72 0 42 0 C42 14 42 14 38.56 18.75 C37.39 19.84 36.2 20.93 35 22 C33.75 24.5 33.89 26.21 33.9 29.01 C33.91 29.99 33.91 30.98 33.91 32 C33.92 33.03 33.93 34.06 33.94 35.12 C33.94 36.17 33.95 37.21 33.95 38.28 C33.96 40.85 33.98 43.43 34 46 C28.11 49.08 24.07 50.16 17.44 50.25 C15.73 50.29 15.73 50.29 14 50.33 C11 50 11 50 9.16 48.8 C6.68 44.96 6.88 40.48 6.9 36.04 C6.91 34.38 6.91 34.38 6.91 32.67 C6.92 31.52 6.93 30.37 6.94 29.19 C6.94 28.02 6.95 26.85 6.95 25.64 C6.96 22.76 6.98 19.88 7 17 C6.03 16.69 5.06 16.38 4.06 16.06 C1 15 1 15 0 14 C0 9.38 0 4.76 0 0 Z " fill="#F5E6DD" transform="translate(232,212)"/>
<path d="M0 0 C28 0 56 0 84 0 C84.08 2.25 84.13 4.51 84.18 6.76 C84.21 8.02 84.24 9.27 84.27 10.57 C83.92 14.95 82.61 16.46 79.54 19.38 C74.78 24.4 74.53 31.9 74.7 38.47 C75.09 41.76 76.2 44.23 78 47 C74.04 51.45 74.04 51.45 70 56 C67.35 53.35 66.4 50.44 65 47 C60.38 47 55.76 47 51 47 C51.07 45.04 51.14 43.07 51.21 41.05 C51.27 38.47 51.32 35.89 51.38 33.31 C51.43 32.02 51.48 30.73 51.53 29.39 C51.88 22.91 51.88 22.91 49.71 17.02 C47.66 15.29 45.39 14.19 43 13 C43 9.04 43 5.08 43 1 C29.14 1 15.28 1 1 1 C1 5.29 1 9.58 1 14 C0.67 14 0.34 14 0 14 C0 9.38 0 4.76 0 0 Z " fill="#F4E6DF" transform="translate(276,212)"/>
<path d="M0 0 C8.91 0 17.82 0 27 0 C31.49 8.89 35.85 17.83 40.07 26.86 C40.43 27.65 40.8 28.43 41.18 29.24 C41.51 29.94 41.83 30.64 42.17 31.36 C42.89 32.99 42.89 32.99 44 34 C45.87 34.12 47.75 34.18 49.62 34.21 C50.82 34.23 52.02 34.25 53.26 34.27 C54.57 34.28 55.88 34.3 57.22 34.32 C58.57 34.34 59.91 34.36 61.25 34.38 C64.8 34.43 68.34 34.48 71.88 34.53 C75.5 34.58 79.11 34.64 82.72 34.69 C89.81 34.8 96.91 34.9 104 35 C104.33 35.66 104.66 36.32 105 37 C65.07 37 25.14 37 -16 37 C-16 36.67 -16 36.34 -16 36 C-11.05 36 -6.1 36 -1 36 C-1.01 33.99 -1.02 31.98 -1.04 29.9 C-1.04 27.93 -1.05 25.96 -1.05 23.99 C-1.06 22.64 -1.07 21.28 -1.08 19.92 C-1.09 17.95 -1.09 15.99 -1.1 14.03 C-1.11 12.26 -1.11 12.26 -1.11 10.46 C-1 7 -1 7 0 0 Z " fill="#9BB4BA" transform="translate(754,583)"/>
<path d="M0 0 C1.24 0.04 2.48 0.08 3.75 0.12 C3.75 0.78 3.75 1.45 3.75 2.12 C6.72 2.12 9.69 2.12 12.75 2.12 C12.75 1.47 12.75 0.8 12.75 0.12 C14.37 0.07 16 0.03 17.62 0 C18.98 -0.03 18.98 -0.03 20.37 -0.07 C22.75 0.12 22.75 0.12 24.75 2.12 C24.98 5.2 24.98 5.2 24.95 9.1 C24.94 9.79 24.94 10.47 24.94 11.18 C24.93 13.37 24.9 15.56 24.88 17.75 C24.86 19.23 24.86 20.72 24.85 22.2 C24.83 25.84 24.79 29.48 24.75 33.12 C23.3 33.12 23.3 33.12 21.82 33.11 C1.09 32.83 1.09 32.83 -19.62 33.62 C-32.14 34.51 -44.71 34.21 -57.25 34.12 C-57.58 33.47 -57.91 32.8 -58.25 32.12 C-54.86 31.04 -52.16 31.2 -48.64 31.6 C-47.55 31.69 -46.47 31.78 -45.35 31.88 C-43.08 32.08 -40.82 32.32 -38.56 32.6 C-35.2 32.85 -32.52 32.92 -29.25 32.12 C-26.05 29.23 -24.22 25.93 -22.25 22.12 C-21.52 20.93 -20.78 19.74 -20.03 18.55 C-19.12 17.01 -19.12 17.01 -18.19 15.44 C-8.6 -0.29 -8.6 -0.29 0 0 Z " fill="#EEE1D5" transform="translate(727.25,584.875)"/>
<path d="M0 0 C12.87 0 25.74 0 39 0 C36.67 9.33 34.33 18.58 31.69 27.81 C28.7 38.32 25.93 48.88 23.31 59.49 C23.04 60.58 22.76 61.66 22.48 62.78 C22.24 63.74 22 64.7 21.76 65.69 C21 68 21 68 19 70 C9.72 41.31 9.72 41.31 6 28 C5.67 26.8 5.67 26.8 5.32 25.58 C4.62 23.06 3.93 20.53 3.25 18 C3.04 17.23 2.83 16.47 2.61 15.68 C2.41 14.94 2.22 14.2 2.02 13.44 C1.76 12.48 1.76 12.48 1.49 11.5 C0.74 7.71 0.43 3.84 0 0 Z " fill="#0C0B1D" transform="translate(522,309)"/>
<path d="M0 0 C74.25 0 148.5 0 225 0 C225 4.95 225 9.9 225 15 C210.81 15 196.62 15 182 15 C181.6 27.83 181.6 27.83 185.5 32.19 C186.32 32.79 187.15 33.38 188 34 C189.04 37.11 189.2 39.49 189.32 42.76 C189.38 44.44 189.38 44.44 189.44 46.15 C189.48 47.32 189.52 48.48 189.56 49.69 C189.61 50.87 189.65 52.05 189.69 53.26 C189.8 56.17 189.9 59.09 190 62 C185.05 62.33 180.1 62.66 175 63 C175 62.34 175 61.68 175 61 C174.01 60.67 173.02 60.34 172 60 C168.6 54.94 169.38 48.28 170.46 42.53 C171.66 38.39 173.02 35.8 176.12 32.81 C180.35 27.93 180.35 27.93 180 15 C167.46 15.33 154.92 15.66 142 16 C141.67 18.97 141.34 21.94 141 25 C140.67 25 140.34 25 140 25 C140 21.7 140 18.4 140 15 C128.45 15 116.9 15 105 15 C105 14.34 105 13.68 105 13 C106.67 12.78 106.67 12.78 108.38 12.56 C111.82 12.22 111.82 12.22 114 11 C116.68 11.06 119.33 11.19 122 11.38 C122.72 11.42 123.44 11.46 124.18 11.51 C127.99 11.75 131.79 12.09 135.59 12.52 C141.14 13.08 146.64 13.09 152.21 13.03 C167 12.96 181.78 13.22 196.56 13.5 C199.24 13.55 201.92 13.6 204.6 13.64 C211.07 13.76 217.53 13.88 224 14 C224 9.71 224 5.42 224 1 C222.02 1.33 220.04 1.66 218 2 C216.66 2.09 215.32 2.14 213.98 2.16 C212.87 2.17 212.87 2.17 211.73 2.19 C210.53 2.2 210.53 2.2 209.31 2.21 C208.02 2.22 208.02 2.22 206.7 2.24 C203.83 2.27 200.95 2.29 198.08 2.32 C196.03 2.34 193.97 2.36 191.92 2.38 C186.37 2.44 180.82 2.49 175.27 2.53 C171.82 2.56 168.36 2.59 164.91 2.63 C132.1 2.93 99.29 3.11 66.48 3.12 C63.5 3.12 60.52 3.13 57.55 3.13 C52.88 3.14 48.22 3.14 43.56 3.13 C41.86 3.13 40.16 3.13 38.46 3.14 C36.14 3.14 33.83 3.13 31.51 3.13 C30.22 3.13 28.93 3.13 27.6 3.13 C24 3 20.56 2.57 17 2 C15.53 1.87 14.07 1.76 12.6 1.68 C11.85 1.64 11.11 1.6 10.34 1.56 C9.59 1.52 8.84 1.48 8.06 1.44 C7.28 1.39 6.5 1.35 5.7 1.31 C3.8 1.2 1.9 1.1 0 1 C0 0.67 0 0.34 0 0 Z " fill="#030416" transform="translate(180,197)"/>
<path d="M0 0 C16.17 0 32.34 0 49 0 C49 5.94 49 11.88 49 18 C47.02 18.66 45.04 19.32 43 20 C41.11 21.99 39.58 23.79 38 26 C37.57 26.58 37.14 27.15 36.7 27.74 C33.53 32.06 30.77 36.54 28.25 41.27 C27.84 41.84 27.43 42.41 27 43 C26.01 43 25.02 43 24 43 C23.84 42.15 23.84 42.15 23.67 41.28 C22.21 34.16 20.42 27.14 15 22 C10.11 19.54 5.37 18.07 0 17 C0 11.39 0 5.78 0 0 Z " fill="#A1BBBD" transform="translate(757,212)"/>
<path d="M0 0 C7.59 0 15.18 0 23 0 C27.56 14.87 27.26 30.56 27 46 C28.32 46.33 29.64 46.66 31 47 C24.94 49.14 19.45 49.24 13.06 49.12 C12.09 49.12 11.12 49.11 10.12 49.1 C7.75 49.07 5.37 49.04 3 49 C2.56 44.27 2.14 39.54 1.72 34.82 C1.57 33.21 1.43 31.61 1.28 30.01 C0.36 19.95 -0.16 10.11 0 0 Z " fill="#81A39D" transform="translate(618,527)"/>
<path d="M0 0 C139.92 0 279.84 0 424 0 C422.51 1.98 422.51 1.98 421 4 C420.34 4 419.68 4 419 4 C419 3.01 419 2.02 419 1 C418.47 1.14 417.94 1.28 417.4 1.43 C409.1 3.38 400.83 3.28 392.36 3.26 C390.67 3.26 388.99 3.27 387.3 3.27 C382.69 3.28 378.07 3.28 373.46 3.28 C368.48 3.27 363.49 3.28 358.51 3.29 C348.76 3.3 339.01 3.3 329.26 3.3 C321.33 3.3 313.41 3.3 305.49 3.31 C303.8 3.31 303.8 3.31 302.07 3.31 C299.78 3.31 297.49 3.31 295.2 3.31 C273.73 3.32 252.27 3.32 230.8 3.31 C211.14 3.31 191.48 3.32 171.82 3.34 C151.64 3.36 131.46 3.37 111.28 3.36 C99.95 3.36 88.61 3.36 77.28 3.38 C67.64 3.39 58 3.39 48.36 3.38 C43.44 3.37 38.52 3.37 33.6 3.38 C29.1 3.4 24.6 3.39 20.1 3.38 C18.47 3.38 16.83 3.38 15.2 3.39 C12.99 3.4 10.78 3.39 8.57 3.37 C6.73 3.37 6.73 3.37 4.85 3.37 C3.91 3.25 2.97 3.13 2 3 C1.34 2.01 0.68 1.02 0 0 Z " fill="#03051C" transform="translate(429,197)"/>
<path d="M0 0 C0.33 0 0.66 0 1 0 C1.33 5.94 1.66 11.88 2 18 C4.31 18 6.62 18 9 18 C16.47 20.4 21.48 23.95 25.15 30.88 C26.59 33.73 27.95 36.62 29.3 39.52 C30.75 42.97 30.75 42.97 33 45 C30.69 45.62 30.69 45.62 28 46 C27.01 45.34 26.02 44.68 25 44 C22.21 43.82 19.53 43.74 16.75 43.77 C15.93 43.77 15.12 43.77 14.27 43.77 C12.55 43.77 10.82 43.78 9.09 43.79 C6.47 43.81 3.86 43.81 1.24 43.81 C-6.9 43.83 -14.91 43.96 -23 45 C-22.3 36.18 -17.31 28.03 -11 22 C-7.04 19.03 -5.23 18.87 0 18 C0 12.06 0 6.12 0 0 Z " fill="#0B081D" transform="translate(612,212)"/>
<path d="M0 0 C22.11 0 44.22 0 67 0 C67.33 4.29 67.66 8.58 68 13 C-27.37 13 -122.74 13 -221 13 C-221 12.67 -221 12.34 -221 12 C-111.61 11.5 -111.61 11.5 0 11 C0 7.37 0 3.74 0 0 Z " fill="#8FB6BB" transform="translate(794,165)"/>
<path d="M0 0 C0.33 0 0.66 0 1 0 C1 5.61 1 11.22 1 17 C3.31 17 5.62 17 8 17 C15.59 18.72 20.84 22.45 25 29 C27.5 34.28 28 38.07 28 44 C11.17 44 -5.66 44 -23 44 C-12.33 25.33 -12.33 25.33 -5 18 C-3.35 18 -1.7 18 0 18 C0 12.06 0 6.12 0 0 Z " fill="#02031D" transform="translate(806,212)"/>
<path d="M0 0 C101.64 0 203.28 0 308 0 C308 0.33 308 0.66 308 1 C291.51 1.97 275.06 2.17 258.55 2.21 C255.74 2.21 252.94 2.22 250.14 2.24 C244.16 2.26 238.17 2.28 232.18 2.29 C223.53 2.31 214.88 2.34 206.22 2.37 C192.17 2.42 178.13 2.46 164.08 2.5 C150.45 2.54 136.82 2.58 123.18 2.63 C121.92 2.63 121.92 2.63 120.63 2.64 C116.4 2.65 112.17 2.66 107.94 2.68 C72.96 2.79 37.98 2.9 3 3 C2.67 37.98 2.34 72.96 2 109 C25.1 109 48.2 109 72 109 C72 109.33 72 109.66 72 110 C48.24 110 24.48 110 0 110 C0 73.7 0 37.4 0 0 Z " fill="#EDEBE6" transform="translate(425,630)"/>
<path d="M0 0 C0.89 0.01 1.78 0.02 2.69 0.03 C12.62 0.28 19.32 2.86 26.62 9.69 C28.49 11.78 29.53 13.71 30.19 16.44 C27.23 18.13 25.1 18.69 21.7 18.7 C20.82 18.7 19.94 18.71 19.03 18.72 C18.08 18.71 17.14 18.71 16.16 18.7 C15.19 18.71 14.21 18.71 13.2 18.71 C11.13 18.71 9.06 18.71 6.99 18.7 C3.83 18.69 0.67 18.7 -2.48 18.71 C-4.5 18.71 -6.51 18.71 -8.52 18.7 C-9.46 18.71 -10.41 18.71 -11.37 18.72 C-16.25 18.68 -20.23 18.35 -24.81 16.44 C-24.75 13.07 -24.62 10.43 -22.43 7.74 C-15.51 1.58 -9.07 -0.11 0 0 Z " fill="#F5E5DF" transform="translate(536.8125,251.5625)"/>
<path d="M0 0 C0.82 -0.01 1.65 -0.01 2.5 -0.02 C4.23 -0.03 5.96 -0.03 7.69 -0.04 C10.33 -0.05 12.98 -0.08 15.63 -0.11 C17.31 -0.12 19 -0.12 20.69 -0.12 C21.48 -0.14 22.26 -0.15 23.08 -0.16 C26.37 -0.15 28.73 -0.02 31.65 1.57 C33.73 3.84 33.59 5.3 33.46 8.33 C33.42 9.66 33.42 9.66 33.38 11.02 C33.14 13.2 33.14 13.2 32.14 14.2 C22.76 15.29 13.19 15.53 3.75 15.66 C2.33 15.69 0.91 15.73 -0.5 15.79 C-12.28 16.23 -12.28 16.23 -16.14 13.71 C-18.65 10.9 -19.75 9.03 -20.23 5.27 C-20.11 4.58 -19.98 3.9 -19.86 3.2 C-13.91 -0.36 -6.72 0.04 0 0 Z " fill="#F8B09C" transform="translate(607.85546875,254.796875)"/>
<path d="M0 0 C0.33 0 0.66 0 1 0 C1 4.29 1 8.58 1 13 C2.32 13.66 3.64 14.32 5 15 C8.07 17.38 8.46 19.21 9 23 C9.19 26.33 9.23 29.66 9.25 33 C9.27 33.89 9.29 34.78 9.31 35.7 C9.34 40.64 9.2 43.96 6 48 C5.67 47.34 5.34 46.68 5 46 C0.38 46 -4.24 46 -9 46 C-10.14 41.43 -10.26 37.31 -10.31 32.62 C-10.34 31.79 -10.37 30.95 -10.4 30.09 C-10.46 24.51 -9.71 21.41 -6 17 C-5.28 16.36 -4.57 15.71 -3.83 15.05 C-1.32 12.24 -1.19 9.94 -0.75 6.25 C-0.6 5.08 -0.45 3.91 -0.3 2.7 C-0.2 1.81 -0.1 0.92 0 0 Z " fill="#070612" transform="translate(275,213)"/>
<path d="M0 0 C3.98 1.38 5.5 2.69 8.06 6.06 C8.73 9.54 8.62 12.91 8.5 16.44 C8.49 17.36 8.49 18.28 8.48 19.23 C8.39 24.52 7.78 29.05 6.06 34.06 C4.48 34.12 2.9 34.16 1.31 34.19 C-0.01 34.22 -0.01 34.22 -1.36 34.26 C-4.18 34.04 -5.62 33.69 -7.94 32.06 C-12.54 26.27 -11.61 19.04 -10.94 12.06 C-10.04 8.98 -8.85 6.63 -6.94 4.06 C-6.32 3.22 -5.7 2.37 -5.06 1.5 C-2.94 0.06 -2.94 0.06 0 0 Z " fill="#0A090B" transform="translate(319.9375,224.9375)"/>
<path d="M0 0 C3.64 0.77 5.03 1.74 7.44 4.62 C8.04 5.34 8.64 6.06 9.27 6.8 C10.81 8.76 12.27 10.76 13.69 12.81 C16.9 17.24 18.7 18.68 24 20 C24.33 16.37 24.66 12.74 25 9 C25.33 9 25.66 9 26 9 C26.33 15.27 26.66 21.54 27 28 C20.63 31.19 17.4 32.15 10.44 32.25 C8.73 32.29 8.73 32.29 7 32.33 C4 32 4 32 2.16 30.8 C-0.28 27.02 -0.12 22.63 -0.1 18.26 C-0.09 17.2 -0.09 16.13 -0.09 15.03 C-0.08 13.93 -0.07 12.82 -0.06 11.69 C-0.06 10.57 -0.05 9.44 -0.05 8.29 C-0.04 5.52 -0.02 2.76 0 0 Z " fill="#CBC4CB" transform="translate(239,230)"/>
<path d="M0 0 C0.33 0 0.66 0 1 0 C1 1.98 1 3.96 1 6 C1.95 6.31 2.9 6.62 3.88 6.94 C7 8 7 8 9 9 C9.33 18.9 9.66 28.8 10 39 C-3.2 37.8 -3.2 37.8 -7 36 C-9.23 29.31 -9.78 18.81 -6.73 12.28 C-5.12 10.31 -5.12 10.31 -3.47 8.61 C-1.12 6.03 -0.7 3.36 0 0 Z " fill="#040414" transform="translate(230,220)"/>
<path d="M0 0 C2.77 -0 5.53 -0.01 8.3 -0.01 C12.53 -0.01 16.76 -0.02 20.98 -0.01 C22.48 -0.01 23.98 -0.01 25.49 -0.01 C27.47 -0.02 29.46 -0.01 31.45 -0.01 C32.55 -0.01 33.65 -0 34.78 -0 C37.2 0.12 37.2 0.12 38.2 1.12 C38.3 3.97 38.34 6.78 38.33 9.62 C38.33 10.42 38.33 11.22 38.34 12.04 C38.33 18 38.33 18 37.2 19.12 C34.6 19.23 32.01 19.29 29.4 19.3 C27.79 19.32 26.18 19.35 24.56 19.37 C22.01 19.41 19.46 19.44 16.9 19.45 C14.45 19.46 11.99 19.51 9.53 19.55 C8.39 19.55 8.39 19.55 7.23 19.54 C3.59 19.63 1.37 20.02 -1.77 21.92 C-4.48 24.86 -4.57 27.22 -4.8 31.12 C-5.46 31.12 -6.12 31.12 -6.8 31.12 C-6.8 26.5 -6.8 21.88 -6.8 17.12 C7.39 17.12 21.58 17.12 36.2 17.12 C36.2 12.17 36.2 7.22 36.2 2.12 C-43.33 2.12 -122.86 2.12 -204.8 2.12 C-204.8 1.79 -204.8 1.46 -204.8 1.12 C-52.24 0.02 -52.24 0.02 0 0 Z " fill="#D4D3D0" transform="translate(368.7989196777344,194.87661743164063)"/>
<path d="M0 0 C1.05 0 2.1 0.01 3.18 0.02 C4.51 0.03 5.84 0.05 7.21 0.07 C13.55 0.13 13.55 0.13 20.02 0.2 C19.69 12.08 19.36 23.96 19.02 36.2 C2.14 37.32 2.14 37.32 -4.39 37.32 C-5.11 37.32 -5.84 37.32 -6.58 37.32 C-8.94 37.32 -11.3 37.31 -13.66 37.31 C-15.37 37.31 -17.09 37.31 -18.81 37.31 C-23.42 37.31 -28.03 37.3 -32.64 37.3 C-37.47 37.29 -42.31 37.29 -47.15 37.29 C-56.28 37.29 -65.42 37.28 -74.56 37.27 C-84.97 37.26 -95.38 37.25 -105.79 37.25 C-127.19 37.24 -148.58 37.22 -169.98 37.2 C-169.98 36.87 -169.98 36.54 -169.98 36.2 C-169.04 36.13 -168.1 36.07 -167.13 36.01 C-165.88 35.93 -164.64 35.84 -163.36 35.76 C-162.13 35.68 -160.9 35.6 -159.63 35.51 C-156.1 35.26 -156.1 35.26 -153.16 34.68 C-149.88 34.18 -146.8 34.07 -143.49 34.07 C-142.22 34.06 -140.95 34.06 -139.65 34.06 C-138.27 34.06 -136.9 34.06 -135.53 34.06 C-134.1 34.06 -132.68 34.06 -131.25 34.06 C-128.27 34.06 -125.29 34.06 -122.31 34.06 C-118.51 34.07 -114.71 34.07 -110.92 34.06 C-107.97 34.06 -105.03 34.06 -102.09 34.06 C-100.69 34.06 -99.29 34.06 -97.89 34.06 C-90.95 34.05 -84.14 34.17 -77.24 34.97 C-73.47 35.35 -69.71 35.34 -65.92 35.33 C-65.09 35.33 -64.26 35.33 -63.41 35.33 C-61.67 35.33 -59.92 35.33 -58.18 35.33 C-55.58 35.32 -52.98 35.33 -50.38 35.33 C-42.01 35.33 -33.69 35.17 -25.33 34.66 C-16.12 34.1 -7.01 34.28 2.21 34.63 C3.76 34.69 5.31 34.74 6.86 34.79 C10.58 34.92 14.3 35.06 18.02 35.2 C17.69 24.97 17.36 14.74 17.02 4.2 C13.35 3.28 9.77 2.7 6.02 2.2 C6.02 2.86 6.02 3.52 6.02 4.2 C0.58 4.41 -3.85 4.3 -8.98 2.2 C-5.49 -0.13 -4.12 -0.04 0 0 Z " fill="#FEF8EC" transform="translate(733.98046875,582.8046875)"/>
<path d="M0 0 C4.3 2.48 6.25 5.39 8 10 C8.58 13.99 8.21 15.62 6.25 19.19 C1.86 24.68 1.86 24.68 -2.04 25.35 C-6.31 25.62 -9.13 25.38 -12.5 22.62 C-15.93 19.02 -16.3 17.08 -16.21 12.09 C-15.76 7.67 -13.76 4.82 -10.81 1.62 C-7.09 -0.53 -4.2 -0.84 0 0 Z " fill="#080A22" transform="translate(764,647)"/>
<path d="M0 0 C3.38 2.04 6.22 4.44 8 8 C8.79 14.68 8.79 14.68 6.77 18.05 C3.34 22.16 1.21 23.79 -4.31 24.31 C-8.68 23.94 -10.63 22.74 -14 20 C-16.69 15.96 -16.67 12.74 -16 8 C-12.25 0.88 -7.84 -1.53 0 0 Z " fill="#080A24" transform="translate(535,648)"/>
<path d="M0 0 C11.88 0 23.76 0 36 0 C36 13 36 13 33.19 17.12 C32.15 18.11 31.09 19.07 30 20 C28.99 20.99 27.99 21.99 27 23 C26.34 22.3 25.68 21.6 25 20.88 C21.64 17.52 17.88 14.79 14.06 12 C9.26 8.46 4.49 4.94 0 1 C0 0.67 0 0.34 0 0 Z " fill="#F9EEEA" transform="translate(194,213)"/>
<path d="M0 0 C3.13 1.67 5.39 3.79 7 7 C7.65 12.52 6.63 15.27 3.39 19.52 C0.68 22.41 -0.92 22.99 -4.88 23.31 C-8.69 23.19 -11.03 22.55 -14 20 C-16.87 15.64 -17.74 12.18 -17 7 C-12.76 -0.01 -7.78 -1.1 0 0 Z " fill="#06091E" transform="translate(765,765)"/>
<path d="M0 0 C5.46 2.93 5.46 2.93 7 6 C7.44 10.26 7.47 13.92 5.75 17.88 C2.65 21.64 1.16 22.83 -3.81 23.56 C-8.23 23.42 -10.52 21.46 -13.65 18.51 C-15.75 16.16 -16 14.97 -16.31 11.75 C-15.94 7.34 -14.77 5.4 -12 2 C-7.96 -0.69 -4.74 -0.68 0 0 Z " fill="#07091F" transform="translate(536,765)"/>
<path d="M0 0 C10.64 -0.06 21.24 0.16 31.88 0.5 C33.45 0.55 35.02 0.6 36.6 0.64 C40.4 0.76 44.2 0.88 48 1 C48 6.28 48 11.56 48 17 C47.67 17 47.34 17 47 17 C47 12.05 47 7.1 47 2 C36.44 2 25.88 2 15 2 C14.39 14 14.39 14 19.12 24.44 C20.07 25.28 21.02 26.13 22 27 C21.67 27.99 21.34 28.98 21 30 C20.68 29.47 20.37 28.94 20.04 28.39 C16.02 22.31 11.95 19.95 5 18 C3.35 17.67 1.7 17.34 0 17 C0 11.39 0 5.78 0 0 Z " fill="#C8CFCB" transform="translate(757,212)"/>
<path d="M0 0 C1.65 0 3.3 0 5 0 C4.34 0.66 3.68 1.32 3 2 C2.67 5.63 2.34 9.26 2 13 C41.6 13 81.2 13 122 13 C123.2 15.4 123.04 16.68 122.88 19.35 C122.83 20.2 122.78 21.05 122.73 21.93 C122.68 22.82 122.62 23.71 122.56 24.62 C122.51 25.52 122.46 26.42 122.4 27.34 C122.27 29.56 122.14 31.78 122 34 C123.98 34.5 123.98 34.5 126 35 C124.02 35.33 122.04 35.66 120 36 C120.33 29.07 120.66 22.14 121 15 C81.07 15 41.14 15 0 15 C0 10.05 0 5.1 0 0 Z " fill="#111022" transform="translate(418,197)"/>
<path d="M0 0 C14.52 0 29.04 0 44 0 C43.34 2.31 42.68 4.62 42 7 C36.34 7.07 30.68 7.13 25.02 7.16 C23.09 7.18 21.17 7.2 19.24 7.23 C16.48 7.26 13.71 7.28 10.95 7.29 C9.65 7.32 9.65 7.32 8.33 7.34 C5.9 7.34 5.9 7.34 2 7 C0 4 0 4 0 0 Z " fill="#FC4A31" transform="translate(519,302)"/>
<path d="M0 0 C0.33 0 0.66 0 1 0 C1 52.8 1 105.6 1 160 C0.67 160 0.34 160 0 160 C-0.41 155.8 -0.82 151.61 -1.23 147.41 C-1.37 145.99 -1.5 144.57 -1.64 143.15 C-2.49 134.44 -3.3 125.73 -4 117 C-3.34 117 -2.68 117 -2 117 C-1.34 78.39 -0.68 39.78 0 0 Z " fill="#2F7699" transform="translate(403,326)"/>
<path d="M0 0 C1.05 0 2.1 0.01 3.18 0.02 C4.51 0.03 5.84 0.05 7.21 0.07 C13.55 0.13 13.55 0.13 20.02 0.2 C19.69 12.08 19.36 23.96 19.02 36.2 C8.93 36.87 -0.93 37.33 -11.01 37.29 C-12.38 37.29 -13.75 37.29 -15.11 37.29 C-18.66 37.28 -22.21 37.28 -25.75 37.26 C-29.39 37.25 -33.03 37.25 -36.67 37.24 C-43.78 37.23 -50.88 37.22 -57.98 37.2 C-57.98 36.87 -57.98 36.54 -57.98 36.2 C-32.5 34.66 -7.49 34.09 18.02 35.2 C17.69 24.97 17.36 14.74 17.02 4.2 C13.35 3.28 9.77 2.7 6.02 2.2 C6.02 2.86 6.02 3.52 6.02 4.2 C0.58 4.41 -3.85 4.3 -8.98 2.2 C-5.49 -0.13 -4.12 -0.04 0 0 Z " fill="#F8F1E5" transform="translate(733.98046875,582.8046875)"/>
<path d="M0 0 C39.27 0 78.54 0 119 0 C115.3 1.85 114.16 2.25 110.29 2.29 C109.34 2.3 108.4 2.31 107.43 2.32 C106.4 2.33 105.37 2.33 104.31 2.33 C103.22 2.35 102.14 2.36 101.01 2.37 C97.41 2.41 93.81 2.43 90.21 2.45 C87.72 2.47 85.22 2.49 82.72 2.52 C77.48 2.56 72.25 2.6 67.01 2.63 C60.96 2.67 54.9 2.72 48.85 2.78 C43.02 2.83 37.2 2.88 31.37 2.92 C28.89 2.94 26.42 2.96 23.94 2.98 C20.48 3.01 17.02 3.03 13.56 3.05 C12.53 3.06 11.5 3.07 10.44 3.08 C9.5 3.09 8.56 3.09 7.59 3.1 C6.77 3.1 5.95 3.11 5.11 3.11 C3 3 3 3 0 2 C0 1.34 0 0.68 0 0 Z " fill="#F9F6EF" transform="translate(418,212)"/>
<path d="M0 0 C5.35 0.48 10.71 0.32 16.08 0.27 C18.67 0.25 21.26 0.24 23.85 0.23 C27.91 0.21 31.97 0.18 36.03 0.14 C39.96 0.11 43.89 0.1 47.83 0.08 C49.04 0.07 50.26 0.05 51.51 0.04 C52.64 0.04 53.77 0.03 54.94 0.03 C55.93 0.02 56.92 0.01 57.95 0.01 C60.87 0.26 63.04 1.02 65.69 2.24 C65.69 2.57 65.69 2.9 65.69 3.24 C39.29 3.24 12.89 3.24 -14.31 3.24 C-13.98 2.25 -13.65 1.26 -13.31 0.24 C-8.57 -0.67 -4.82 -0.58 0 0 Z " fill="#FEFBEE" transform="translate(432.3116455078125,616.7597961425781)"/>
<path d="M0 0 C1.32 0.33 2.64 0.66 4 1 C3.67 1.66 3.34 2.32 3 3 C2.88 6.02 2.81 9.02 2.79 12.04 C2.78 12.98 2.77 13.91 2.76 14.88 C2.73 17.98 2.71 21.09 2.68 24.2 C2.66 26.34 2.64 28.49 2.62 30.64 C2.57 36.31 2.52 41.97 2.47 47.64 C2.42 53.42 2.36 59.19 2.31 64.97 C2.2 76.32 2.1 87.66 2 99 C1.34 99 0.68 99 0 99 C0 66.33 0 33.66 0 0 Z " fill="#E1DFD9" transform="translate(425,751)"/>
<path d="M0 0 C1.32 0.33 2.64 0.66 4 1 C4.07 9.67 4.12 18.33 4.16 27 C4.17 31.02 4.19 35.05 4.23 39.07 C4.26 42.96 4.28 46.84 4.28 50.72 C4.29 52.21 4.3 53.69 4.32 55.17 C4.34 57.24 4.34 59.32 4.34 61.4 C4.35 62.58 4.35 63.76 4.36 64.98 C3.97 68.26 3.22 69.61 1 72 C-0.37 63.15 0.11 54.35 0.44 45.44 C0.49 43.84 0.54 42.24 0.6 40.65 C0.72 36.76 0.86 32.88 1 29 C0.67 29 0.34 29 0 29 C-0.1 22.85 -0.1 22.85 0 21 C0.33 20.67 0.66 20.34 1 20 C1.16 18.59 1.25 17.17 1.32 15.75 C1.36 14.89 1.4 14.04 1.44 13.16 C1.48 12.26 1.52 11.36 1.56 10.44 C1.61 9.54 1.65 8.63 1.69 7.71 C1.8 5.47 1.9 3.24 2 1 C1.34 0.67 0.68 0.34 0 0 Z " fill="#F8F5EF" transform="translate(237,260)"/>
<path d="M0 0 C4.05 2.02 5.45 3.4 8 7 C9.14 10.42 9.1 13.09 9.06 16.69 C9.05 17.87 9.04 19.05 9.04 20.26 C9.02 21.17 9.01 22.07 9 23 C9.99 23.33 10.98 23.66 12 24 C9 25 9 25 -1 25 C-0.67 16.75 -0.34 8.5 0 0 Z " fill="#DBC7C2" transform="translate(329,234)"/>
<path d="M0 0 C0.33 0 0.66 0 1 0 C1 44.55 1 89.1 1 135 C0.67 135 0.34 135 0 135 C-1.21 84.82 -1.21 84.82 -1 63 C-1.33 63 -1.66 63 -2 63 C-2.03 61.56 -2.05 60.13 -2.06 58.69 C-2.07 57.89 -2.09 57.09 -2.1 56.26 C-2.02 53.63 -1.81 51.11 -1.53 48.5 C-0.64 39.14 -0.63 29.71 -0.44 20.31 C-0.39 18.34 -0.35 16.37 -0.31 14.39 C-0.2 9.6 -0.1 4.8 0 0 Z " fill="#040310" transform="translate(403,503)"/>
<path d="M0 0 C0.33 0 0.66 0 1 0 C2.01 13.34 2.55 26.7 3.06 40.06 C3.11 41.21 3.15 42.35 3.2 43.53 C3.89 61.37 4.29 79.15 4 97 C3.67 97 3.34 97 3 97 C2.67 93.04 2.34 89.08 2 85 C1.67 85 1.34 85 1 85 C1.01 84.2 1.01 83.4 1.02 82.57 C1.04 78.94 1.05 75.31 1.06 71.69 C1.07 70.42 1.08 69.16 1.09 67.86 C1.09 66.05 1.09 66.05 1.1 64.2 C1.11 62.53 1.11 62.53 1.11 60.82 C1.13 57.92 1.13 57.92 0 55 C-0.08 53.3 -0.11 51.6 -0.1 49.89 C-0.09 48.91 -0.09 47.93 -0.09 46.92 C-0.08 45.89 -0.07 44.87 -0.06 43.81 C-0.06 42.78 -0.05 41.74 -0.05 40.67 C-0.04 38.12 -0.02 35.56 0 33 C-0.33 33 -0.66 33 -1 33 C-1.13 21.95 -0.76 11.02 0 0 Z " fill="#0B0C1D" transform="translate(291,567)"/>
<path d="M0 0 C1.88 1 1.88 1 3 3 C3.39 7.11 3.56 9.75 1.88 13.5 C0 15 0 15 -2.94 15.5 C-6 15 -6 15 -8.38 13.44 C-10.62 10.06 -10.57 7.97 -10 4 C-7.26 -0.11 -4.81 -0.72 0 0 Z " fill="#030809" transform="translate(540,431)"/>
<path d="M0 0 C-0.64 0.23 -1.28 0.45 -1.94 0.69 C-4.27 1.85 -4.27 1.85 -4.75 4.62 C-4.83 5.41 -4.92 6.19 -5 7 C-5.33 7 -5.66 7 -6 7 C-6 5.02 -6 3.04 -6 1 C-19.86 1 -33.72 1 -48 1 C-48 5.62 -48 10.24 -48 15 C-48.33 15 -48.66 15 -49 15 C-49.33 10.71 -49.66 6.42 -50 2 C-62.87 2 -75.74 2 -89 2 C-89.33 1.34 -89.66 0.68 -90 0 C-79.15 -0.15 -68.3 -0.3 -57.45 -0.44 C-52.42 -0.51 -47.38 -0.58 -42.34 -0.65 C-37.48 -0.72 -32.62 -0.78 -27.75 -0.84 C-25.9 -0.87 -24.04 -0.89 -22.19 -0.92 C-19.59 -0.96 -16.99 -0.99 -14.39 -1.02 C-13.25 -1.04 -13.25 -1.04 -12.08 -1.06 C-7.93 -1.1 -4.06 -0.82 0 0 Z " fill="#1B1A22" transform="translate(280,211)"/>
<path d="M0 0 C2.91 0.52 3.64 1.14 5.44 3.44 C5.84 5.59 5.84 5.59 5.81 7.94 C5.82 8.71 5.83 9.48 5.84 10.28 C5.34 12.94 4.6 13.85 2.44 15.44 C-1.5 15.44 -3.09 14.87 -6 12.19 C-7.56 9.44 -7.56 9.44 -7.56 6.88 C-5.97 3 -4.24 0.72 0 0 Z " fill="#03090A" transform="translate(537.5625,487.5625)"/>
<path d="M0 0 C2.94 0.5 2.94 0.5 4.81 2.12 C6.26 5.18 6.36 7.15 5.94 10.5 C4.44 12.88 4.44 12.88 2.94 14.5 C-3.49 14.01 -3.49 14.01 -6 11.75 C-7.3 9.01 -7.59 7.5 -7.06 4.5 C-4.9 1.42 -3.73 0.61 0 0 Z " fill="#030B0C" transform="translate(538.0625,391.5)"/>
<path d="M0 0 C32.67 0.5 32.67 0.5 66 1 C66 1.33 66 1.66 66 2 C65.3 2 64.6 2 63.88 2 C57.26 2.02 50.64 2.06 44.02 2.13 C40.61 2.17 37.21 2.19 33.81 2.2 C29.89 2.2 25.97 2.25 22.05 2.29 C20.84 2.29 19.62 2.29 18.37 2.28 C11.31 2.28 11.31 2.28 5.22 5.4 C2.89 7.74 2.89 7.74 2.41 10.24 C2.48 10.92 2.55 11.61 2.62 12.31 C2.75 13.53 2.87 14.75 3 16 C5.97 16.99 8.94 17.98 12 19 C7.57 20.48 4.5 19.11 0 18 C0 12.06 0 6.12 0 0 Z " fill="#DCDEDA" transform="translate(681,212)"/>
<path d="M0 0 C0.66 0 1.32 0 2 0 C1.72 1.04 1.45 2.08 1.16 3.15 C-1.5 13.24 -1.5 13.24 -2.73 23.59 C-3 26 -3 26 -3.94 29.67 C-4.95 33.65 -5.63 37.62 -6.22 41.68 C-6.32 42.38 -6.43 43.08 -6.53 43.8 C-6.86 46.01 -7.18 48.23 -7.5 50.44 C-10.04 67.97 -10.04 67.97 -12 76 C-12.33 76 -12.66 76 -13 76 C-12.51 64.49 -10.59 53.21 -8.73 41.85 C-8.19 38.57 -7.67 35.29 -7.15 32.01 C-5.39 21.12 -3.47 10.5 0 0 Z " fill="#3B9CAA" transform="translate(470,295)"/>
<path d="M0 0 C3.12 0.2 5.26 0.42 7.75 2.38 C8.9 3.87 9.95 5.43 11 7 C11.33 7 11.66 7 12 7 C12 28.45 12 49.9 12 72 C11.01 72 10.02 72 9 72 C7.51 72.99 7.51 72.99 6 74 C7.49 69.05 7.49 69.05 9 64 C9.66 64 10.32 64 11 64 C11 46.18 11 28.36 11 10 C10.34 10 9.68 10 9 10 C8.67 11.65 8.34 13.3 8 15 C6.62 12.24 7.02 9.91 7.16 6.88 C7.18 4.75 7.18 4.75 5 3 C2.68 2.6 0.34 2.26 -2 2 C-1.34 1.34 -0.68 0.68 0 0 Z " fill="#39C2DB" transform="translate(535,429)"/>
<path d="M0 0 C10.56 0 21.12 0 32 0 C32 0.33 32 0.66 32 1 C29.69 1 27.38 1 25 1 C24.67 1.66 24.34 2.32 24 3 C23.38 2.94 22.75 2.88 22.11 2.83 C10.02 1.36 10.02 1.36 -0.89 5.13 C-2.8 7.92 -2.8 7.92 -4.35 10.96 C-6.2 14.37 -8.24 16.43 -11.12 19 C-11.91 19.7 -12.7 20.4 -13.51 21.12 C-16.24 23.18 -18.84 24.7 -22 26 C-22.99 25.67 -23.98 25.34 -25 25 C-22 23 -22 23 -19.77 21.77 C-9.67 16.16 -5.65 10.17 0 0 Z " fill="#C4C0BB" transform="translate(696,583)"/>
<path d="M0 0 C0.66 0.33 1.32 0.66 2 1 C7.18 17.14 7.37 37.6 0 53 C-1.14 49.57 -0.84 48.89 0.38 45.62 C1.55 42.43 2.4 39.35 3 36 C2.33 36.01 1.67 36.02 0.98 36.04 C-5.74 36.1 -12.32 35.72 -19 35 C-19 34.67 -19 34.34 -19 34 C-16.46 33.97 -13.92 33.95 -11.38 33.94 C-10.66 33.93 -9.95 33.92 -9.21 33.91 C-5.03 33.89 -1.13 34.17 3 35 C2.59 17.39 2.59 17.39 0 0 Z " fill="#259EB1" transform="translate(583,268)"/>
<path d="M0 0 C0.33 0 0.66 0 1 0 C1.02 6.23 1.04 12.45 1.05 18.68 C1.06 20.79 1.07 22.91 1.08 25.02 C1.09 28.07 1.09 31.13 1.1 34.18 C1.1 35.11 1.11 36.05 1.11 37.01 C1.11 43.06 0.72 48.99 0 55 C-0.33 55 -0.66 55 -1 55 C-1.17 49.18 -1.33 43.36 -1.48 37.54 C-1.54 35.56 -1.59 33.57 -1.65 31.59 C-1.73 28.75 -1.81 25.91 -1.88 23.07 C-1.91 22.17 -1.93 21.28 -1.96 20.36 C-2.01 18.24 -2.01 16.12 -2 14 C-1.67 13.67 -1.34 13.34 -1 13 C-0.77 10.82 -0.59 8.63 -0.44 6.44 C-0.35 5.24 -0.27 4.04 -0.18 2.81 C-0.12 1.88 -0.06 0.95 0 0 Z " fill="#90B0B7" transform="translate(227,713)"/>
<path d="M0 0 C11.22 0 22.44 0 34 0 C34 5.28 34 10.56 34 16 C33.67 16 33.34 16 33 16 C33 11.05 33 6.1 33 1 C22.44 1 11.88 1 1 1 C0.39 13 0.39 13 5.12 23.44 C6.07 24.28 7.02 25.13 8 26 C7.67 26.99 7.34 27.98 7 29 C6.61 28.46 6.23 27.91 5.83 27.36 C5.31 26.64 4.79 25.92 4.25 25.19 C3.74 24.48 3.23 23.77 2.7 23.04 C0.98 20.97 -0.79 19.53 -3 18 C-2.34 17.34 -1.68 16.68 -1 16 C-0.67 10.72 -0.34 5.44 0 0 Z " fill="#B2CBCC" transform="translate(771,213)"/>
<path d="M0 0 C6.23 -0.02 12.46 -0.04 18.69 -0.05 C20.81 -0.06 22.93 -0.07 25.05 -0.08 C28.09 -0.09 31.14 -0.09 34.18 -0.1 C35.13 -0.1 36.08 -0.11 37.06 -0.11 C37.95 -0.11 38.83 -0.11 39.73 -0.11 C40.9 -0.12 40.9 -0.12 42.09 -0.12 C44 0 44 0 46 1 C46.48 3.18 46.48 3.18 46.75 5.88 C46.9 7.2 46.9 7.2 47.05 8.55 C47 11 47 11 45 14 C44.34 13.67 43.68 13.34 43 13 C43 9.04 43 5.08 43 1 C29.14 1 15.28 1 1 1 C1 5.29 1 9.58 1 14 C0.67 14 0.34 14 0 14 C0 9.38 0 4.76 0 0 Z " fill="#CCCACA" transform="translate(276,212)"/>
<path d="M0 0 C0.33 0 0.66 0 1 0 C1.33 4.62 1.66 9.24 2 14 C2.33 14 2.66 14 3 14 C3.03 15.69 3.05 17.37 3.06 19.06 C3.07 20 3.09 20.94 3.1 21.91 C2.99 25.34 2.49 28.61 2 32 C1.76 34.98 1.59 37.96 1.44 40.94 C1.39 41.72 1.35 42.5 1.31 43.3 C1.2 45.2 1.1 47.1 1 49 C0.01 49.5 0.01 49.5 -1 50 C-1.19 33.32 -0.6 16.67 0 0 Z " fill="#1A1F2A" transform="translate(230,663)"/>
<path d="M0 0 C0.33 0 0.66 0 1 0 C1.33 3.63 1.66 7.26 2 11 C2.33 11 2.66 11 3 11 C3.03 12.69 3.05 14.37 3.06 16.06 C3.07 17 3.09 17.94 3.1 18.91 C2.99 22.34 2.48 25.61 2 29 C1.75 32.14 1.59 35.29 1.44 38.44 C1.39 39.26 1.35 40.09 1.31 40.94 C1.2 42.96 1.1 44.98 1 47 C0.01 47.5 0.01 47.5 -1 48 C-1.15 31.98 -0.69 16.01 0 0 Z " fill="#1C222E" transform="translate(232,611)"/>
<path d="M0 0 C5.54 0.68 11.02 0.59 16.59 0.52 C18.61 0.49 20.62 0.47 22.64 0.46 C23.52 0.45 24.4 0.43 25.3 0.42 C27.91 0.52 30.3 0.94 32.84 1.52 C32.84 1.85 32.84 2.18 32.84 2.52 C15.35 2.52 -2.14 2.52 -20.16 2.52 C-16.41 0.65 -14.52 0.15 -10.47 -0.17 C-9.01 -0.3 -9.01 -0.3 -7.52 -0.43 C-4.89 -0.47 -2.59 -0.33 0 0 Z " fill="#060C1D" transform="translate(814.16015625,746.48046875)"/>
<path d="M0 0 C0.33 0 0.66 0 1 0 C1.03 7.1 1.04 14.2 1.05 21.3 C1.06 23.71 1.07 26.12 1.08 28.53 C1.09 32.01 1.09 35.49 1.1 38.96 C1.1 40.03 1.11 41.1 1.11 42.2 C1.11 48.22 0.79 54.03 0 60 C-0.33 60 -0.66 60 -1 60 C-1.2 56.73 -1.38 53.46 -1.56 50.19 C-1.62 49.26 -1.67 48.33 -1.73 47.37 C-1.78 46.48 -1.83 45.59 -1.88 44.67 C-1.93 43.85 -1.97 43.02 -2.02 42.18 C-2 40 -2 40 -1 37 C-0.85 34.2 -0.74 31.42 -0.68 28.61 C-0.66 27.8 -0.64 26.98 -0.62 26.14 C-0.56 23.53 -0.5 20.92 -0.44 18.31 C-0.39 16.54 -0.35 14.77 -0.31 13.01 C-0.2 8.67 -0.1 4.34 0 0 Z " fill="#FCF9F1" transform="translate(325,635)"/>
<path d="M0 0 C1.26 0 2.51 0.01 3.81 0.01 C5.13 0.02 6.45 0.03 7.8 0.04 C9.14 0.04 10.48 0.04 11.82 0.05 C15.11 0.06 18.39 0.08 21.68 0.1 C21.68 0.76 21.68 1.42 21.68 2.1 C12.77 2.1 3.86 2.1 -5.32 2.1 C-5.32 7.71 -5.32 13.32 -5.32 19.1 C-5.65 19.1 -5.98 19.1 -6.32 19.1 C-6.32 13.49 -6.32 7.88 -6.32 2.1 C-6.98 1.77 -7.64 1.44 -8.32 1.1 C-5.5 -0.31 -3.15 -0.01 0 0 Z " fill="#0E1527" transform="translate(813.3203125,209.90234375)"/>
<path d="M0 0 C0.99 0.33 1.98 0.66 3 1 C3.86 2.95 3.86 2.95 4.54 5.48 C4.79 6.4 5.04 7.31 5.3 8.26 C5.55 9.23 5.8 10.19 6.06 11.19 C6.57 13.08 7.08 14.97 7.6 16.86 C7.84 17.75 8.07 18.64 8.32 19.57 C8.88 21.55 9.53 23.52 10.21 25.46 C11.19 28.62 10.76 30.82 10 34 C7.73 31.73 7.51 30.67 6.82 27.6 C6.61 26.71 6.41 25.83 6.2 24.91 C5.99 23.97 5.78 23.03 5.56 22.06 C5.12 20.15 4.68 18.24 4.24 16.34 C4.03 15.42 3.82 14.5 3.6 13.55 C2.53 9 1.29 4.49 0 0 Z " fill="#181B3F" transform="translate(264,274)"/>
<path d="M0 0 C3 1 3 1 4.69 3.44 C6.35 7.95 6.84 12.24 6 17 C4.52 18.6 4.52 18.6 3 20 C2.27 23.11 2.27 23.11 2 26 C1.67 26 1.34 26 1 26 C0.67 17.42 0.34 8.84 0 0 Z " fill="#B6B9C4" transform="translate(368,232)"/>
<path d="M0 0 C0.33 0 0.66 0 1 0 C1.33 4.95 1.66 9.9 2 15 C2.66 12.03 3.32 9.06 4 6 C4.33 6 4.66 6 5 6 C5.83 9.21 6.14 12.33 6.25 15.62 C6.28 16.38 6.3 17.14 6.33 17.91 C5.92 20.51 4.99 21.36 3 23 C2.01 22.67 1.02 22.34 0 22 C0 14.74 0 7.48 0 0 Z " fill="#E6E1E1" transform="translate(370,236)"/>
<path d="M0 0 C0.66 0.33 1.32 0.66 2 1 C-1.36 4.07 -3.74 4.4 -8.23 4.48 C-10.02 4.52 -10.02 4.52 -11.85 4.57 C-13.72 4.6 -13.72 4.6 -15.62 4.62 C-18.1 4.68 -20.57 4.73 -23.04 4.79 C-24.13 4.81 -25.23 4.82 -26.36 4.84 C-28.98 4.82 -28.98 4.82 -31 6 C-31 4.68 -31 3.36 -31 2 C-30.1 1.97 -29.19 1.95 -28.26 1.92 C-24.92 1.83 -21.58 1.73 -18.24 1.63 C-16.79 1.58 -15.34 1.54 -13.89 1.5 C-11.82 1.45 -9.74 1.38 -7.66 1.32 C-6.41 1.28 -5.16 1.24 -3.87 1.21 C-1.1 1.32 -1.1 1.32 0 0 Z " fill="#9CC0C1" transform="translate(839,210)"/>
<path d="M0 0 C0.66 0 1.32 0 2 0 C2 7.92 2 15.84 2 24 C-1.96 24 -5.92 24 -10 24 C-10 23.67 -10 23.34 -10 23 C-6.37 23 -2.74 23 1 23 C0.34 22.01 -0.32 21.02 -1 20 C-1.64 13.34 -0.87 6.61 0 0 Z " fill="#040511" transform="translate(402,812)"/>
<path d="M0 0 C0.33 0 0.66 0 1 0 C1.39 9.78 0.19 19.32 -1 29 C-1.66 29 -2.32 29 -3 29 C-2.98 28.08 -2.98 28.08 -2.96 27.14 C-2.96 26.33 -2.95 25.52 -2.94 24.69 C-2.93 23.89 -2.91 23.09 -2.9 22.26 C-2.9 19.83 -2.9 19.83 -4 17 C-3.82 9.82 -3.82 9.82 -1 7 C-0.6 4.68 -0.26 2.34 0 0 Z M-5 29 C-4.01 29.5 -4.01 29.5 -3 30 C-3.99 30.5 -3.99 30.5 -5 31 C-5 30.34 -5 29.68 -5 29 Z " fill="#FCF9F3" transform="translate(240,471)"/>
<path d="M0 0 C0.33 0 0.66 0 1 0 C1.03 1.9 1.05 3.79 1.06 5.69 C1.07 6.74 1.09 7.8 1.1 8.89 C0.92 14.43 -0.64 19.65 -2 25 C-2.66 25 -3.32 25 -4 25 C-4.66 26.98 -5.32 28.96 -6 31 C-7.13 27.62 -6.91 27.11 -5.7 23.94 C-3.94 19.01 -2.83 14.07 -1.81 8.94 C-1.64 8.07 -1.46 7.21 -1.28 6.31 C-0.85 4.21 -0.42 2.11 0 0 Z " fill="#0F0918" transform="translate(735,548)"/>
<path d="M0 0 C3.86 3.85 4 8.6 4.69 13.75 C4.88 15.05 4.88 15.05 5.08 16.38 C5.83 21.64 6.13 26.69 6 32 C5.34 32 4.68 32 4 32 C2.61 25.15 1.69 18.41 1.25 11.43 C1.14 8.99 1.14 8.99 0 7 C-0.04 4.67 -0.04 2.33 0 0 Z " fill="#CED9CA" transform="translate(682,307)"/>
<path d="M0 0 C0.33 0 0.66 0 1 0 C1.33 4.62 1.66 9.24 2 14 C2.33 14 2.66 14 3 14 C3.05 15.62 3.09 17.25 3.12 18.88 C3.15 19.78 3.17 20.68 3.2 21.62 C3 24 3 24 1 26 C0.54 29.12 0.54 29.12 0.38 32.62 C0.3 33.81 0.23 35 0.15 36.23 C0.1 37.14 0.05 38.06 0 39 C-0.33 39 -0.66 39 -1 39 C-1.13 25.96 -0.77 13.02 0 0 Z " fill="#3A3944" transform="translate(236,531)"/>
<path d="M0 0 C2.54 2.54 2.29 4.24 2.32 7.72 C2.32 8.82 2.32 8.82 2.31 9.94 C2.33 10.67 2.34 11.4 2.36 12.15 C2.37 17.58 2.37 17.58 0.48 19.73 C-0.01 20.15 -0.5 20.57 -1 21 C-1.03 17.88 -1.05 14.75 -1.06 11.62 C-1.07 10.74 -1.08 9.85 -1.09 8.93 C-1.09 8.08 -1.09 7.23 -1.1 6.35 C-1.1 5.57 -1.11 4.78 -1.11 3.97 C-1 2 -1 2 0 0 Z " fill="#02011F" transform="translate(266,234)"/>
<path d="M0 0 C0.33 0.66 0.66 1.32 1 2 C0.1 4.24 -0.89 6.45 -1.94 8.62 C-2.5 9.81 -3.07 11 -3.65 12.23 C-4.1 13.14 -4.54 14.06 -5 15 C-6.32 14.34 -7.64 13.68 -9 13 C-7.08 6.71 -5.37 3.82 0 0 Z " fill="#F5EFE8" transform="translate(515,240)"/>
<path d="M0 0 C0.99 0 1.98 0 3 0 C3 11.55 3 23.1 3 35 C2.67 35 2.34 35 2 35 C1.67 33.02 1.34 31.04 1 29 C0.67 29 0.34 29 0 29 C-0.1 22.85 -0.1 22.85 0 21 C0.33 20.67 0.66 20.34 1 20 C1.16 18.59 1.25 17.17 1.32 15.75 C1.36 14.89 1.4 14.04 1.44 13.16 C1.48 12.26 1.52 11.36 1.56 10.44 C1.61 9.54 1.65 8.63 1.69 7.71 C1.8 5.47 1.9 3.24 2 1 C1.34 0.67 0.68 0.34 0 0 Z " fill="#FEFCF5" transform="translate(237,260)"/>
<path d="M0 0 C0 0.33 0 0.66 0 1 C-10.23 1 -20.46 1 -31 1 C-31 0.67 -31 0.34 -31 0 C-28.31 -0.34 -25.63 -0.67 -22.94 -1 C-21.81 -1.14 -21.81 -1.14 -20.66 -1.29 C-13.31 -2.18 -7.06 -2.31 0 0 Z " fill="#010009" transform="translate(636,253)"/>
<path d="M0 0 C0.33 0 0.66 0 1 0 C1 9.9 1 19.8 1 30 C0.67 30 0.34 30 0 30 C-0.33 26.04 -0.66 22.08 -1 18 C-1.33 18 -1.66 18 -2 18 C-2.21 11.59 -2.16 6.07 0 0 Z " fill="#0D0D20" transform="translate(294,634)"/>
<path d="M0 0 C1 3 1 3 0 6 C0.01 9.4 0.08 12.79 0.21 16.2 C0.26 18.31 0.26 18.31 0 22 C-0.99 22.99 -1.98 23.98 -3 25 C-3 20.38 -3 15.76 -3 11 C-3.66 10.67 -4.32 10.34 -5 10 C-4.34 8.02 -3.68 6.04 -3 4 C-2.34 4 -1.68 4 -1 4 C-0.67 2.68 -0.34 1.36 0 0 Z " fill="#FAF4F0" transform="translate(310,231)"/>
<path d="M0 0 C0.33 0 0.66 0 1 0 C2.06 18.44 2.06 18.44 2.19 25 C2.2 25.72 2.22 26.44 2.23 27.19 C2 29 2 29 0 32 C-1.47 29.05 -1 26.52 -0.88 23.24 C-0.84 22.25 -0.84 22.25 -0.81 21.23 C-0.73 19.11 -0.65 16.99 -0.56 14.88 C-0.51 13.44 -0.46 12 -0.4 10.57 C-0.28 7.04 -0.14 3.52 0 0 Z " fill="#3F5C77" transform="translate(324,705)"/>
<path d="M0 0 C0.33 0 0.66 0 1 0 C1.1 11.06 1.13 21.99 0 33 C-2.57 29.16 -2.23 25.19 -2.12 20.75 C-2.12 20 -2.11 19.26 -2.1 18.49 C-2.07 16.66 -2.04 14.83 -2 13 C-1.34 13 -0.68 13 0 13 C0 8.71 0 4.42 0 0 Z " fill="#252635" transform="translate(295,651)"/>
<path d="M0 0 C0.33 0 0.66 0 1 0 C1 5.94 1 11.88 1 18 C-1.31 18.66 -3.62 19.32 -6 20 C-7.7 20.95 -9.37 21.94 -11 23 C-12.33 23.68 -13.66 24.35 -15 25 C-13.87 21.6 -13.24 21.17 -10.31 19.31 C-9.65 18.88 -8.98 18.44 -8.3 17.99 C-6 17 -6 17 0 17 C0 11.39 0 5.78 0 0 Z " fill="#161629" transform="translate(679,213)"/>
<path d="M0 0 C0.33 0 0.66 0 1 0 C1.33 6.27 1.66 12.54 2 19 C1.34 19 0.68 19 0 19 C-0.25 18.38 -0.5 17.76 -0.75 17.12 C-1.81 14.87 -1.81 14.87 -3.94 14.06 C-6.72 12.63 -7.57 10.72 -9 8 C-8.42 8.31 -7.85 8.62 -7.25 8.94 C-4.78 10.19 -4.78 10.19 -1 11 C-0.67 7.37 -0.34 3.74 0 0 Z " fill="#BBB1BB" transform="translate(264,239)"/>
<path d="M0 0 C0.33 0 0.66 0 1 0 C1.14 1.13 1.29 2.27 1.44 3.44 C1.61 6.81 1.61 6.81 3 8 C3.43 14.38 2.82 20.68 2 27 C1.67 27 1.34 27 1 27 C0.24 17.98 -0.14 9.05 0 0 Z " fill="#09071D" transform="translate(347,274)"/>
<path d="M0 0 C0.33 0 0.66 0 1 0 C1 1.65 1 3.3 1 5 C1.99 4.67 2.98 4.34 4 4 C4.48 10.13 4.15 10.82 0 16 C0 10.72 0 5.44 0 0 Z " fill="#88D9E0" transform="translate(297,435)"/>
<path d="M0 0 C0.74 1.61 0.74 1.61 1 4 C-0.58 6.98 -0.58 6.98 -2.81 10.19 C-3.9 11.79 -3.9 11.79 -5.02 13.42 C-7 16 -7 16 -9 17 C-7.04 9.17 -7.04 9.17 -4 6 C-3.34 6 -2.68 6 -2 6 C-2.33 5.01 -2.66 4.02 -3 3 C-2.01 2.01 -1.02 1.02 0 0 Z " fill="#B1CDCC" transform="translate(794,234)"/>
<path d="M0 0 C0.99 0.33 1.98 0.66 3 1 C-0.96 4.96 -4.92 8.92 -9 13 C-9.33 12.01 -9.66 11.02 -10 10 C-6.7 6.7 -3.4 3.4 0 0 Z " fill="#9CC1C3" transform="translate(852,198)"/>
<path d="M0 0 C2.26 4.37 3.2 8.21 3.72 13.06 C3.97 15.21 3.97 15.21 5 18 C4.34 18.99 3.68 19.98 3 21 C1.23 16.37 0.6 12.04 0.38 7.12 C0.34 6.44 0.3 5.75 0.26 5.04 C0.16 3.36 0.08 1.68 0 0 Z " fill="#80D7E3" transform="translate(293,413)"/>
<path d="M0 0 C0.33 0 0.66 0 1 0 C2.16 8.7 1.68 16.39 0 25 C-0.33 25 -0.66 25 -1 25 C-1.03 22.15 -1.05 19.29 -1.06 16.44 C-1.07 15.64 -1.08 14.84 -1.09 14.01 C-1.11 9.23 -0.8 4.72 0 0 Z " fill="#05050D" transform="translate(239,504)"/>
<path d="M0 0 C3.02 3.02 2.47 6.56 2.62 10.62 C2.66 11.43 2.7 12.23 2.74 13.05 C2.84 15.04 2.92 17.02 3 19 C0.04 14.56 -0.11 11.55 -0.06 6.31 C-0.05 5.13 -0.04 3.95 -0.04 2.74 C-0.02 1.83 -0.01 0.93 0 0 Z " fill="#DA8232" transform="translate(352,434)"/>
<path d="M0 0 C0.33 0 0.66 0 1 0 C1 6.27 1 12.54 1 19 C0.34 19 -0.32 19 -1 19 C-1.66 19.66 -2.32 20.32 -3 21 C-2.5 16.55 -2.5 16.55 -2 12 C-1.67 12 -1.34 12 -1 12 C-0.67 8.04 -0.34 4.08 0 0 Z " fill="#E9E6E2" transform="translate(241,315)"/>
<path d="M0 0 C0.66 0 1.32 0 2 0 C2 1.98 2 3.96 2 6 C3.32 5.01 4.64 4.02 6 3 C6.66 3.33 7.32 3.66 8 4 C7.05 5.17 6.09 6.34 5.12 7.5 C4.59 8.15 4.06 8.8 3.51 9.47 C3.01 9.97 2.51 10.48 2 11 C1.34 11 0.68 11 0 11 C0 7.37 0 3.74 0 0 Z " fill="#0F131E" transform="translate(510,253)"/>
<path d="M0 0 C0.33 0 0.66 0 1 0 C1.1 8.08 1.13 15.98 0 24 C-0.33 24 -0.66 24 -1 24 C-1.82 15.6 -2.44 8.18 0 0 Z " fill="#FDFAEE" transform="translate(322,721)"/>
<path d="M0 0 C0.99 0.33 1.98 0.66 3 1 C3.22 2.6 3.43 4.21 3.62 5.81 C3.74 6.71 3.86 7.6 3.98 8.52 C4 11 4 11 2 14 C1.34 13.67 0.68 13.34 0 13 C0 8.71 0 4.42 0 0 Z " fill="#B7AFAF" transform="translate(319,212)"/>
<path d="M0 0 C0 3 0 3 -0.56 5.06 C-1.21 9.44 -0.55 13.63 0 18 C-3.19 15.09 -3.91 12.98 -4.31 8.62 C-3.95 4.44 -2.87 2.96 0 0 Z " fill="#1B1A1F" transform="translate(752,767)"/>
<path d="M0 0 C0.33 0 0.66 0 1 0 C1.03 0.62 1.05 1.23 1.08 1.86 C1.19 4.66 1.31 7.45 1.44 10.25 C1.48 11.22 1.52 12.19 1.56 13.18 C1.6 14.12 1.64 15.05 1.68 16.02 C1.72 16.87 1.76 17.73 1.79 18.62 C1.99 20.85 2.39 22.85 3 25 C2.01 25 1.02 25 0 25 C0 16.75 0 8.5 0 0 Z " fill="#D8D8E7" transform="translate(240,234)"/>
<path d="M0 0 C0.99 0.33 1.98 0.66 3 1 C2.3 4.15 1.22 7.02 0 10 C-0.33 10.99 -0.66 11.98 -1 13 C-1.66 13 -2.32 13 -3 13 C-2.69 11.21 -2.38 9.42 -2.06 7.62 C-1.89 6.63 -1.71 5.63 -1.54 4.6 C-1 2 -1 2 0 0 Z M0 9 C2 10 2 10 2 10 Z " fill="#7CCBD6" transform="translate(295,454)"/>
<path d="M0 0 C0.33 0 0.66 0 1 0 C1.33 1.98 1.66 3.96 2 6 C2.33 6 2.66 6 3 6 C3 8.31 3 10.62 3 13 C2.01 13.5 2.01 13.5 1 14 C0.34 15.32 -0.32 16.64 -1 18 C-0.5 9.09 -0.5 9.09 0 0 Z " fill="#413F48" transform="translate(239,493)"/>
<path d="M0 0 C1.32 0.33 2.64 0.66 4 1 C4.08 2.46 4.14 3.92 4.19 5.38 C4.22 6.19 4.26 7 4.29 7.84 C4.2 8.55 4.1 9.26 4 10 C3.01 10.66 2.02 11.32 1 12 C0.67 8.04 0.34 4.08 0 0 Z " fill="#1578A4" transform="translate(399,443)"/>
<path d="M0 0 C0 2.97 0 5.94 0 9 C-0.99 9 -1.98 9 -3 9 C-3.99 9.66 -4.98 10.32 -6 11 C-5.55 9.35 -5.09 7.71 -4.62 6.06 C-4.37 5.15 -4.11 4.23 -3.85 3.29 C-3.02 1.04 -2.59 0 0 0 Z " fill="#3BC8E2" transform="translate(547,492)"/>
<path d="M0 0 C1.56 4.02 0.46 7.7 -0.44 11.75 C-0.59 12.45 -0.73 13.14 -0.88 13.86 C-1.25 15.58 -1.62 17.29 -2 19 C-2.66 18.67 -3.32 18.34 -4 18 C-3.67 14.37 -3.34 10.74 -3 7 C-2.34 7 -1.68 7 -1 7 C-0.67 4.69 -0.34 2.38 0 0 Z " fill="#070711" transform="translate(289,472)"/>
<path d="M0 0 C0.66 0 1.32 0 2 0 C2.18 5.22 1.97 9.07 0 14 C-0.33 14 -0.66 14 -1 14 C-0.67 9.38 -0.34 4.76 0 0 Z " fill="#29272F" transform="translate(244,451)"/>
<path d="M0 0 C0.33 0 0.66 0 1 0 C2.51 5.81 3.22 11 3 17 C-0.1 11.41 -0.11 6.25 0 0 Z " fill="#7BD2E7" transform="translate(281,338)"/>
<path d="M0 0 C3.13 3.39 3.34 5.71 3.19 10.25 C3.16 11.33 3.13 12.41 3.11 13.52 C3.07 14.34 3.04 15.16 3 16 C2.67 16 2.34 16 2 16 C0.61 10.55 -0.24 5.63 0 0 Z " fill="#C9E4D8" transform="translate(682,307)"/>
<path d="M0 0 C3.96 0.33 7.92 0.66 12 1 C12 1.33 12 1.66 12 2 C8.37 2.33 4.74 2.66 1 3 C1 5.64 1 8.28 1 11 C0.67 11 0.34 11 0 11 C0 7.37 0 3.74 0 0 Z " fill="#02011E" transform="translate(242,262)"/>
<path d="M0 0 C0.66 0 1.32 0 2 0 C2 3.96 2 7.92 2 12 C1.34 12 0.68 12 0 12 C-1.16 7.74 -0.76 4.32 0 0 Z " fill="#2B2B38" transform="translate(301,779)"/>
<path d="M0 0 C0.33 0 0.66 0 1 0 C2.28 6.76 1.49 12.31 0 19 C-0.33 19 -0.66 19 -1 19 C-1.1 12.57 -1.15 6.34 0 0 Z " fill="#03030B" transform="translate(241,483)"/>
<path d="M0 0 C0.99 0.33 1.98 0.66 3 1 C3 4.63 3 8.26 3 12 C2.01 11.67 1.02 11.34 0 11 C0 7.37 0 3.74 0 0 Z " fill="#44CEE9" transform="translate(543,394)"/>
<path d="M0 0 C2.46 2.46 3 4.71 4 8 C3.34 8 2.68 8 2 8 C2.33 9.32 2.66 10.64 3 12 C1.02 12.99 1.02 12.99 -1 14 C-0.67 13.01 -0.34 12.02 0 11 C0.07 9.11 0.08 7.21 0.06 5.31 C0.05 4.32 0.04 3.32 0.04 2.3 C0.02 1.54 0.01 0.78 0 0 Z " fill="#FBFAF4" transform="translate(542,653)"/>
<path d="M0 0 C0.33 0 0.66 0 1 0 C1.33 3.96 1.66 7.92 2 12 C-0.59 10.7 -1.02 9.71 -2 7 C-1.68 4.35 -1.19 2.39 0 0 Z " fill="#FAF9F4" transform="translate(747,655)"/>
<path d="M0 0 C0.99 0.99 1.98 1.98 3 3 C2.67 3.99 2.34 4.98 2 6 C0.35 6 -1.3 6 -3 6 C-3.33 7.32 -3.66 8.64 -4 10 C-4.25 7.69 -4.25 7.69 -4 5 C-2 3.31 -2 3.31 0 2 C0 1.34 0 0.68 0 0 Z " fill="#96AFBC" transform="translate(301,253)"/>
<path d="M0 0 C0.66 0 1.32 0 2 0 C2 3.3 2 6.6 2 10 C-0.46 7.54 -1 5.29 -2 2 C-1.34 1.34 -0.68 0.68 0 0 Z " fill="#FCFAF4" transform="translate(746,771)"/>
<path d="M0 0 C0 0.66 0 1.32 0 2 C-1.53 3.51 -1.53 3.51 -3.5 5.12 C-4.15 5.66 -4.8 6.2 -5.47 6.76 C-5.97 7.17 -6.48 7.58 -7 8 C-7.66 7.67 -8.32 7.34 -9 7 C-8.07 5.82 -7.13 4.66 -6.19 3.5 C-5.67 2.85 -5.14 2.2 -4.61 1.53 C-3 0 -3 0 0 0 Z " fill="#0D111E" transform="translate(804,230)"/>
<path d="M0 0 C2.31 0 4.62 0 7 0 C2.25 4.88 2.25 4.88 0 6 C0 4.02 0 2.04 0 0 Z " fill="#E4E3DE" transform="translate(683,214)"/>
<path d="M0 0 C0.66 0 1.32 0 2 0 C2.33 3.3 2.66 6.6 3 10 C2.34 10 1.68 10 1 10 C0.01 7.36 -0.98 4.72 -2 2 C-1.34 1.34 -0.68 0.68 0 0 Z " fill="#FCFAF4" transform="translate(518,771)"/>
<path d="M0 0 C0.99 0.33 1.98 0.66 3 1 C2.34 3.97 1.68 6.94 1 10 C0.34 10 -0.32 10 -1 10 C-0.67 6.7 -0.34 3.4 0 0 Z " fill="#0D0C19" transform="translate(246,441)"/>
<path d="M0 0 C0.66 0 1.32 0 2 0 C2.33 3.63 2.66 7.26 3 11 C0 8 0 8 -0.29 5.96 C-0.2 3.97 -0.1 1.99 0 0 Z " fill="#D1D8C9" transform="translate(681,298)"/>
<path d="M0 0 C0.99 0.33 1.98 0.66 3 1 C0.36 2.98 -2.28 4.96 -5 7 C-4 3 -4 3 -2.12 1.19 C-1.42 0.8 -0.72 0.4 0 0 Z " fill="#EDE8E6" transform="translate(519,256)"/>
<path d="M0 0 C0 0.66 0 1.32 0 2 C1.98 2 3.96 2 6 2 C6 2.33 6 2.66 6 3 C2.37 3 -1.26 3 -5 3 C-5.33 2.34 -5.66 1.68 -6 1 C-3.92 0.45 -2.16 0 0 0 Z " fill="#E7E2E0" transform="translate(248,259)"/>
<path d="M0 0 C2 2 2 2 2.12 5.12 C2.08 6.07 2.04 7.02 2 8 C2.66 8 3.32 8 4 8 C4 8.99 4 9.98 4 11 C3.01 11 2.02 11 1 11 C0.67 7.37 0.34 3.74 0 0 Z " fill="#BBD2D4" transform="translate(780,244)"/>
<path d="M0 0 C0.66 0 1.32 0 2 0 C1.67 1.98 1.34 3.96 1 6 C-0.32 5.34 -1.64 4.68 -3 4 C-1.62 2 -1.62 2 0 0 Z " fill="#FBF6F1" transform="translate(509,249)"/>
<path d="M0 0 C0.33 0 0.66 0 1 0 C1.39 1.43 1.76 2.87 2.12 4.31 C2.33 5.11 2.54 5.91 2.76 6.74 C3 9 3 9 1 12 C-0.26 9.48 -0.1 7.69 -0.06 4.88 C-0.05 3.96 -0.04 3.05 -0.04 2.12 C-0.02 1.42 -0.01 0.72 0 0 Z " fill="#416482" transform="translate(323,725)"/>
<path d="M0 0 C0.99 0 1.98 0 3 0 C2.67 2.31 2.34 4.62 2 7 C0 5 0 5 -0.12 2.38 C-0.08 1.59 -0.04 0.81 0 0 Z " fill="#091C22" transform="translate(540,372)"/>
<path d="M0 0 C8.57 -0.29 8.57 -0.29 12 2 C7.48 3.46 4.48 2.27 0 1 C0 0.67 0 0.34 0 0 Z " fill="#FBF8F4" transform="translate(542,253)"/>
<path d="M0 0 C0.66 0.99 1.32 1.98 2 3 C1.67 3.66 1.34 4.32 1 5 C0.96 6.67 0.96 8.33 1 10 C0.34 9.67 -0.32 9.34 -1 9 C-1.12 2.25 -1.12 2.25 0 0 Z " fill="#110F2E" transform="translate(266,234)"/>
<path d="M0 0 C0.99 0.33 1.98 0.66 3 1 C-0.46 3.97 -0.46 3.97 -4 7 C-2.93 4.08 -2.22 2.22 0 0 Z " fill="#08070B" transform="translate(358,227)"/>
<path d="M0 0 C1.98 0 3.96 0 6 0 C4.35 1.69 2.69 3.35 1 5 C0.67 5 0.34 5 0 5 C0 3.35 0 1.7 0 0 Z " fill="#FCF6EC" transform="translate(364,214)"/>
</svg>
